<svg xmlns="http://www.w3.org/2000/svg" viewBox="0 0 265.65 379.63"><title>logo</title><g id="Layer_2" data-name="Layer 2"><g id="Layer_1-2" data-name="Layer 1"><path d="M213.66,102.06q-15.27-12.4-30.52-18.36a81.13,81.13,0,0,0-29.57-6q-18.13,0-29.57,8.58t-11.45,22.42q0,9.55,5.72,15.74a49.79,49.79,0,0,0,15,10.73,127.53,127.53,0,0,0,21,7.87q11.68,3.34,23.13,7.15,45.78,15.27,67,40.78t21.22,66.53q0,27.67-9.3,50.08A104.44,104.44,0,0,1,229.16,346q-17.89,16-43.88,24.8t-58.9,8.82Q58.18,379.63,0,339.09l40.06-75.35q21,18.6,41.49,27.66t40.54,9.06q22.89,0,34.1-10.49t11.21-23.85a32.23,32.23,0,0,0-2.86-14.07,30.51,30.51,0,0,0-9.54-11,76.54,76.54,0,0,0-17.41-9.3q-10.73-4.29-26-9.54-18.13-5.72-35.53-12.64a111.6,111.6,0,0,1-31-18.36,85.21,85.21,0,0,1-21.94-28.85q-8.35-17.4-8.35-44.12t8.82-48.41a107.52,107.52,0,0,1,24.8-37.2q16-15.49,39.11-24.08T139.26,0a226.65,226.65,0,0,1,55.8,7.39,246.53,246.53,0,0,1,55.8,21.7Z"/></g></g></svg>