<?xml version="1.0" standalone="no"?>
<!DOCTYPE svg PUBLIC "-//W3C//DTD SVG 1.1//EN" "http://www.w3.org/Graphics/SVG/1.1/DTD/svg11.dtd" >
<svg xmlns="http://www.w3.org/2000/svg" xmlns:xlink="http://www.w3.org/1999/xlink" version="1.1">
<metadata>
Created by FontForge 20161013 at Mon Nov 15 21:30:08 2010
 By ,,,
Copyright (c) 2010 by Svetoslav Simov. All rights reserved.
</metadata>
<defs>
<font id="Hero" horiz-adv-x="616" >
  <font-face 
    font-family="Hero"
    font-weight="400"
    font-stretch="normal"
    units-per-em="1000"
    panose-1="2 0 5 6 0 0 0 2 0 4"
    ascent="750"
    descent="-250"
    x-height="509"
    cap-height="660.5"
    bbox="-45.3763 -201.941 1119.23 834.281"
    underline-thickness="50"
    underline-position="-200"
    unicode-range="U+0020-2122"
  />
<missing-glyph horiz-adv-x="200" 
 />
    <glyph glyph-name=".notdef" horiz-adv-x="200" 
 />
    <glyph glyph-name=".null" horiz-adv-x="0" 
 />
    <glyph glyph-name="nonmarkingreturn" horiz-adv-x="333" 
 />
    <glyph glyph-name="space" unicode=" " horiz-adv-x="273" 
 />
    <glyph glyph-name="space" unicode="&#xa0;" horiz-adv-x="273" 
 />
    <glyph glyph-name="exclam" unicode="!" horiz-adv-x="183" 
d="M109 609v-441q0 -22 -18.5 -30.5t-37.5 0.5t-19 30v441q0 23 18.5 32t37.5 -0.5t19 -31.5zM112 25v34q0 22 -19.5 30.5t-39 -0.5t-19.5 -30v-34q0 -20 19.5 -28.5t39 -1t19.5 29.5z" />
    <glyph glyph-name="quotedbl" unicode="&#x22;" horiz-adv-x="234" 
d="M204 616v-107q0 -21 -17 -30t-34 0t-17 30v107q0 23 17 32.5t34 0t17 -32.5zM91 616v-107q0 -21 -17.5 -30t-35 0t-17.5 30v107q0 23 17.5 32.5t35 0t17.5 -32.5z" />
    <glyph glyph-name="numbersign" unicode="#" horiz-adv-x="520" 
d="M63 32l29 170h-42q-14 0 -25.5 10t-11.5 25q0 14 11.5 24.5t25.5 10.5h54l17 94h-48q-23 0 -32 17t0 34.5t32 18.5h60q4 29 14.5 87t14.5 86q3 32 37 32q35 0 33 -42l-29 -163h133l30 173q3 23 22 29.5t34.5 -6t10.5 -33.5l-29 -163h45q22 0 31 -17t0.5 -34.5
t-31.5 -18.5h-56l-16 -94h49q15 0 26 -9.5t11 -25.5t-10 -25.5t-27 -9.5h-61l-29 -176q-7 -23 -25.5 -31t-32.5 3.5t-10 34.5l28 169h-133l-31 -180q-2 -27 -29 -30q-26 -4 -38 16q-6 11 -2 24zM188 369l-18 -100h142l17 100h-141z" />
    <glyph glyph-name="dollar" unicode="$" horiz-adv-x="679" 
d="M35 134q-5 20 10 33t34 9.5t23 -24.5q13 -44 71.5 -71.5t111.5 -26.5v229q-45 4 -74 8.5t-63.5 15.5t-54.5 27.5t-33.5 45.5t-13.5 68q0 80 74 126t165 52v47q0 22 16.5 31t33 0.5t16.5 -31.5v-48q182 -14 227 -123q7 -18 -6.5 -30.5t-33 -11t-25.5 17.5q-29 74 -162 84
v-221q47 -4 76 -8t66 -15t58 -27t36 -44.5t15 -66.5q0 -50 -22.5 -87.5t-61 -58.5t-80 -32t-87.5 -13v-53q0 -19 -16.5 -28t-33 -1t-16.5 29v54q-40 2 -77 10.5t-74 24.5t-63 44t-36 65zM285 348v214q-38 -2 -73.5 -13t-64.5 -38t-29 -65q0 -27 11.5 -45.5t37 -29t51 -15
t67.5 -8.5zM351 277v-223q45 3 82.5 14.5t67 40.5t29.5 70q0 27 -13.5 46t-41 29t-55 15t-69.5 8z" />
    <glyph glyph-name="percent" unicode="%" horiz-adv-x="614" 
d="M533 615l-433 -615q-15 -18 -34.5 -14.5t-25.5 20t5 33.5l436 611q10 16 27.5 14t25.5 -16t-1 -33zM146 650q56 0 95 -40.5t39 -100.5q0 -56 -37.5 -100t-96.5 -44q-57 0 -95.5 40.5t-38.5 103.5q0 56 37.5 98.5t96.5 42.5zM217 510q-1 31 -20.5 55t-50.5 24
q-30 0 -51 -23.5t-21 -56.5q0 -32 20 -57.5t52 -25.5q31 0 50 23t21 61zM429 275q56 0 95 -40.5t39 -100.5q0 -56 -37.5 -100t-96.5 -44q-57 0 -95.5 40.5t-38.5 103.5q0 56 37.5 98.5t96.5 42.5zM500 135q-1 31 -20.5 55t-50.5 24q-30 0 -51 -24t-21 -56t20 -57.5t52 -25.5
q31 0 50 23t21 61z" />
    <glyph glyph-name="ampersand" unicode="&#x26;" 
d="M277 -17q-48 0 -90 10t-80 31t-60.5 60.5t-22.5 94.5q0 51 33 90.5t83 47.5q-48 10 -75 51t-27 90q0 62 37 105t89.5 61.5t114.5 18.5q64 0 115.5 -14.5t88.5 -52.5t37 -95q0 -20 -17 -28.5t-34 0t-17 28.5q0 51 -49.5 74t-123.5 23q-69 0 -120.5 -32.5t-51.5 -88.5
q0 -111 171 -111h288q19 0 28 -16t1.5 -32.5t-29.5 -16.5h-41v-103q0 -54 -20.5 -93t-57 -60.5t-78.5 -31.5t-92 -10zM460 281h-182q-40 0 -69.5 -4t-58 -14t-44 -32t-15.5 -54q0 -67 58 -99t129 -32q44 0 82.5 10.5t69 41.5t30.5 79v104z" />
    <glyph glyph-name="quotesingle" unicode="'" horiz-adv-x="151" 
d="M101 615v-107q0 -21 -17 -29.5t-34 0t-17 29.5v107q0 22 17 31t34 0t17 -31z" />
    <glyph glyph-name="parenleft" unicode="(" horiz-adv-x="264" 
d="M165 645q17 16 37.5 12t25 -20.5t-13.5 -38.5q-57 -50 -87.5 -134.5t-30.5 -175.5t31 -171.5t90 -130.5v1q13 -10 14.5 -26t-10.5 -29q-27 -24 -50 1q-72 63 -110.5 157t-38.5 197q0 102 37.5 198t105.5 160z" />
    <glyph glyph-name="parenright" unicode=")" horiz-adv-x="271" 
d="M22 601q-17 15 -11 35t24.5 24.5t35.5 -10.5q71 -62 109 -159.5t38 -201.5t-38.5 -199t-109.5 -157q-16 -16 -36 -9t-24 25t13 35q61 47 91.5 127.5t30.5 172.5q0 93 -32 179.5t-91 137.5z" />
    <glyph glyph-name="asterisk" unicode="*" horiz-adv-x="276" 
d="M195 449l-38 31l3 -55q0 -20 -15 -28.5t-29 0t-12 29.5l1 54l-36 -33q-26 -17 -45 4q-18 19 -2 38q5 6 14 10l45 22l-46 25q-19 9 -20 25.5t13 23.5t35 -1l42 -27l-1 47q0 21 15 29.5t30 0t14 -28.5l-2 -50l33 31q16 13 33 5.5t18 -23.5t-18 -31l-37 -26l42 -25
q22 -11 13 -34.5t-32 -19.5q-10 2 -18 7z" />
    <glyph glyph-name="plus" unicode="+" horiz-adv-x="533" 
d="M291 476v-151h149q23 0 32 -16.5t0 -33.5t-32 -18h-149v-150q0 -16 -10.5 -26t-25.5 -10q-36 0 -36 36v150h-149q-15 0 -25.5 10t-10.5 24q0 16 10 25t26 9h149v151q0 15 9.5 25t26.5 10q15 0 25.5 -10.5t10.5 -24.5z" />
    <glyph glyph-name="comma" unicode="," horiz-adv-x="139" 
d="M100 16l-45 -94q-10 -21 -28.5 -22t-29 14t-1.5 35l41 96q9 21 29.5 21.5t32 -15.5t1.5 -35z" />
    <glyph glyph-name="hyphen" unicode="-" horiz-adv-x="365" 
d="M272 263h-202q-24 0 -33.5 16.5t0.5 33.5t33 17h202q24 0 34 -17t0 -33.5t-34 -16.5z" />
    <glyph glyph-name="period" unicode="." horiz-adv-x="141" 
d="M56 83q19 0 31 -11.5t12 -30.5t-12 -30.5t-31 -11.5q-20 0 -32.5 11.5t-12.5 30.5t12.5 30.5t32.5 11.5z" />
    <glyph glyph-name="slash" unicode="/" horiz-adv-x="367" 
d="M-13 -49l300 705q8 18 27.5 19.5t32.5 -12.5t5 -34l-302 -706q-11 -22 -30.5 -22.5t-30.5 15.5t-2 35z" />
    <glyph glyph-name="zero" unicode="0" horiz-adv-x="536" 
d="M421 410q1 86 -47 128.5t-117 42.5q-68 0 -115.5 -42.5t-46.5 -128.5v-181q-1 -83 47 -127.5t115 -44.5q69 0 117 42.5t47 129.5v181zM26 410q-1 111 68 173.5t164 62.5t164.5 -62.5t68.5 -173.5v-181q1 -112 -68.5 -174.5t-164.5 -62.5t-164 62.5t-68 174.5v181z" />
    <glyph glyph-name="one" unicode="1" horiz-adv-x="323" 
d="M52 424l145 197q18 20 45 13t27 -34v-581q0 -19 -17 -27t-34 0t-17 27v490l-85 -120q-15 -22 -36.5 -20.5t-29.5 18.5t2 37z" />
    <glyph glyph-name="two" unicode="2" horiz-adv-x="568" 
d="M279 148l-132 -87l147 6h179q24 0 34 -16.5t0.5 -33.5t-33.5 -17h-393q-27 2 -35.5 26.5t12.5 41.5q55 40 296 223q39 28 59 71t13 88q-8 59 -50 90.5t-102 31.5q-138 0 -153 -116q-2 -22 -20.5 -28.5t-35 5t-13.5 33.5q11 86 71.5 129.5t150.5 43.5q83 0 144.5 -48.5
t76.5 -130.5q11 -63 -16.5 -121t-79.5 -97z" />
    <glyph glyph-name="three" unicode="3" horiz-adv-x="567" 
d="M103 190q14 -128 168 -128q78 0 122 56t31 126t-81 107q-23 10 -48 10q-29 0 -52 -12l2 1q-18 -11 -37.5 -1t-19.5 31q0 18 12 28l176 163h-287q-20 0 -28.5 16.5t0 32.5t28.5 16h355q27 0 37 -22t-12 -45l-131 -128l-55 -31q61 15 111.5 -11t76 -74.5t25.5 -104.5
q0 -92 -63.5 -158t-160.5 -66q-218 0 -236 183q-3 30 25 37q25 7 38 -12q4 -6 4 -14z" />
    <glyph glyph-name="four" unicode="4" horiz-adv-x="512" 
d="M393 207v403q0 14 9.5 23t24.5 9q14 0 24 -9.5t10 -22.5v-586q0 -20 -17 -28.5t-34 -0.5t-17 28v121h-332q-33 0 -44.5 18.5t5.5 46.5v-1l247 421q8 18 28 19t32 -14.5t0 -37.5l-235 -389h299z" />
    <glyph glyph-name="five" unicode="5" horiz-adv-x="561" 
d="M96 183q10 -72 52 -99t113 -27q75 0 118 49.5t43 112.5q0 62 -43.5 107t-122.5 45h-180q-15 0 -25.5 9t-10.5 23v192q0 41 44 41h326q22 0 31.5 -17t0.5 -34t-32 -17h-301v-132h147q113 0 175.5 -63.5t62.5 -154.5q0 -89 -63 -157t-169 -68q-98 0 -160 43t-75 134
q-5 26 11.5 39t35.5 5.5t22 -31.5z" />
    <glyph glyph-name="six" unicode="6" horiz-adv-x="562" 
d="M194 552q-81 -48 -81 -164v-36q27 46 72 68.5t94 22.5q96 0 163.5 -63t68.5 -159q1 -103 -70 -167.5t-171 -64.5q-95 0 -160.5 59.5t-65.5 148.5v187q0 76 22.5 129t83.5 92q74 44 165.5 35t150.5 -69q14 -14 7.5 -31.5t-23 -21.5t-33.5 10q-46 47 -134 47q-50 0 -89 -23
zM271 56q68 0 117.5 45.5t49.5 119.5q0 64 -46 109t-112 45q-79 0 -122 -50.5t-43 -127.5q0 -64 45.5 -102.5t110.5 -38.5z" />
    <glyph glyph-name="seven" unicode="7" horiz-adv-x="517" 
d="M87 45l295 520h-327q-22 0 -31 17.5t0.5 35.5t30.5 18h373q33 0 43.5 -17.5t-6.5 -45.5l-314 -561q-10 -17 -32 -17q-13 0 -24.5 10.5t-11.5 23.5q0 10 4 16z" />
    <glyph glyph-name="eight" unicode="8" horiz-adv-x="622" 
d="M177 327v2q-53 14 -84 51t-31 91q0 49 27 87t70 57.5t94.5 28.5t103.5 -0.5t95 -29t70 -57.5t27 -86q0 -53 -25.5 -87.5t-81.5 -54.5v-2q60 -10 94 -49t34 -95q0 -51 -23 -89t-62.5 -59t-84.5 -31t-95 -10q-49 0 -93.5 10t-83.5 31t-62.5 59.5t-23.5 90.5q0 58 36.5 94.5
t98.5 47.5zM499 183q0 42 -40 70.5t-96.5 35.5t-113.5 0.5t-97 -35.5t-40 -71q0 -44 33.5 -73t74.5 -39t86 -10q32 0 63 5.5t61.5 18.5t49.5 38t19 60zM131 473q0 -42 36 -70.5t87 -35t102 0t87 35t36 70.5q0 30 -19 54t-50 36t-68 18t-74 0t-68 -18t-50 -36t-19 -54z" />
    <glyph glyph-name="nine" unicode="9" horiz-adv-x="559" 
d="M429 226v45q-24 -44 -72 -67t-97 -23q-96 0 -162.5 62.5t-67.5 158.5q-1 103 70.5 167.5t168.5 64.5q71 0 128 -35q46 -28 72.5 -74t26.5 -99v-199q0 -108 -67 -173.5t-174 -65.5q-128 0 -189 73q-13 17 -5 36t25 22t32 -11q43 -53 138 -53q83 0 128 46t45 125zM361 543
q-39 25 -92 25q-69 0 -119.5 -46t-50.5 -120q0 -65 47.5 -110t112.5 -45q73 0 119.5 40t46.5 96v42q0 79 -64 118z" />
    <glyph glyph-name="colon" unicode=":" horiz-adv-x="158" 
d="M65 418q20 0 32 -11.5t12 -30.5t-12 -30.5t-32 -11.5t-32 11.5t-12 30.5t12 30.5t32 11.5zM65 83q19 0 31 -11.5t12 -30.5t-12 -30.5t-31 -11.5q-20 0 -32.5 11.5t-12.5 30.5t12.5 30.5t32.5 11.5z" />
    <glyph glyph-name="semicolon" unicode=";" horiz-adv-x="155" 
d="M65 418q20 0 32 -11.5t12 -30.5t-12 -30.5t-32 -11.5t-32 11.5t-12 30.5t12 30.5t32 11.5zM55 -78l45 94q10 19 -3 35.5t-34.5 16t-30.5 -21.5l-36 -97q-9 -20 1.5 -35t29 -14t28.5 22z" />
    <glyph glyph-name="less" unicode="&#x3c;" horiz-adv-x="310" 
d="M249 463l-161 -152l160 -147q16 -16 10 -35t-24 -23t-36 9l-172 167q-33 27 1 60l173 166q15 17 34.5 12.5t24.5 -21t-10 -36.5z" />
    <glyph glyph-name="equal" unicode="=" horiz-adv-x="442" 
d="M351 343h-283q-21 0 -29.5 16.5t0 32.5t29.5 16h283q22 0 31 -16t0 -32.5t-31 -16.5zM68 270h283q13 0 22 -6.5t11 -16t0 -19t-11 -16.5t-22 -8h-283q-21 0 -30 16t-0.5 32.5t30.5 17.5z" />
    <glyph glyph-name="greater" unicode="&#x3e;" horiz-adv-x="328" 
d="M203 311l-159 152q-16 18 -9.5 36.5t24 21t34.5 -12.5l173 -166q34 -33 1 -60l-172 -167q-10 -9 -21.5 -10.5t-20.5 4t-15 14t-4.5 20t11.5 21.5z" />
    <glyph glyph-name="question" unicode="?" horiz-adv-x="603" 
d="M479 438q1 69 -64.5 105.5t-141.5 36.5q-67 0 -122 -22t-72 -75q-5 -17 -24 -19t-33 10.5t-8 31.5q13 40 42 69t67 43.5t74.5 20.5t76.5 6q48 0 96 -12.5t90 -37t67.5 -66t24.5 -93.5q-1 -38 -14 -66.5t-40.5 -49t-47 -31t-57.5 -26.5q-33 -13 -50.5 -22.5t-33.5 -27
t-16 -40.5v-24q0 -19 -18 -27.5t-36 -0.5t-18 28v25q0 31 10.5 54t35 40.5t42 26.5t51.5 24q28 12 44 20t35.5 22t29 33t10.5 44zM299 50v-26q0 -22 -20.5 -29.5t-41.5 1.5t-21 28v26q0 16 13 25t28.5 9t28.5 -9t13 -25z" />
    <glyph glyph-name="at" unicode="@" horiz-adv-x="766" 
d="M372 502q-117 0 -199.5 -83t-82.5 -200q0 -69 32 -130.5t88 -102.5q76 -51 162 -51q53 0 93 16q18 7 31.5 -5t12 -30.5t-22.5 -26.5q-49 -19 -114 -19q-110 0 -202 64q-70 50 -109.5 125.5t-39.5 159.5q0 144 102.5 245.5t248.5 101.5q148 0 248.5 -97.5t100.5 -249.5
q0 -38 -6 -76t-19.5 -75.5t-39.5 -61t-61 -23.5q-76 0 -85 80q-16 -43 -58 -63.5t-91 -20.5q-92 0 -161.5 68.5t-70.5 164.5q0 106 66 172t164 66q46 0 88.5 -21.5t60.5 -62.5v20q0 17 18 23.5t35.5 -1.5t17.5 -27v-311q0 -22 16 -22q20 0 33 20.5t18 54t6.5 54.5t1.5 42
q0 122 -80.5 202.5t-201.5 80.5zM508 178v60q0 65 -43 107t-101 42q-73 0 -119 -47.5t-46 -127.5q0 -68 49.5 -117.5t114.5 -49.5q57 0 101 39.5t44 93.5z" />
    <glyph glyph-name="A" unicode="A" horiz-adv-x="697" 
d="M494 231l-157 315l-158 -315h315zM525 168h-376l-81 -158q-9 -18 -28.5 -18.5t-32.5 14t-5 33.5l302 595q9 19 33 19q22 0 32 -19l301 -592q16 -27 -10 -42q-25 -15 -46 0q-7 5 -11 13z" />
    <glyph glyph-name="B" unicode="B" horiz-adv-x="687" 
d="M634 189q0 -53 -22.5 -92t-61 -59t-82 -29t-94.5 -9h-260q-15 0 -26 10.5t-11 25.5v564q0 15 11 25.5t26 10.5h237q31 0 60.5 -4t62.5 -16t57.5 -30.5t40.5 -50t16 -72.5q0 -88 -77 -119q123 -39 123 -155zM351 571h-201v-204h204q161 0 161 96q0 30 -16.5 52.5t-43 34
t-52.5 16.5t-52 5zM150 302v-237h224q185 0 185 124q0 57 -43 85t-112 28h-254z" />
    <glyph glyph-name="C" unicode="C" horiz-adv-x="667" 
d="M622 114q-39 -56 -108 -89q-79 -36 -150 -36q-132 0 -228.5 96.5t-96.5 241.5q0 122 77 211t194 107q183 25 298 -96q14 -16 6 -33.5t-25.5 -21t-32.5 9.5q-85 90 -235 73q-95 -15 -152.5 -80t-57.5 -171q0 -113 75 -190.5t180 -77.5q58 0 116 29q50 26 82 67
q11 16 31 13t28.5 -18.5t-1.5 -34.5z" />
    <glyph glyph-name="D" unicode="D" horiz-adv-x="657" 
d="M111 572v-507h192q106 0 165.5 75.5t59.5 177.5q0 103 -59.5 178.5t-165.5 75.5h-192zM303 0h-218q-19 0 -32.5 13t-13.5 30v551q0 17 13.5 29.5t32.5 12.5h218q95 0 164.5 -47t101.5 -118t32 -153t-32 -153t-101.5 -118t-164.5 -47z" />
    <glyph glyph-name="E" unicode="E" horiz-adv-x="639" 
d="M148 283v-217h395q20 0 29.5 -16.5t1.5 -33t-31 -16.5h-421q-20 0 -33 13t-13 31v549q0 18 13 30.5t33 12.5h422q20 0 28 -16t-0.5 -32t-28.5 -16h-395v-225h376q19 0 27 -16t0.5 -32t-27.5 -16h-376z" />
    <glyph glyph-name="F" unicode="F" horiz-adv-x="617" 
d="M77 25v568q0 17 13 30t31 13h412q20 0 28 -16t0 -31.5t-28 -15.5h-384v-251h365q18 0 26 -15.5t0.5 -31t-26.5 -15.5h-365v-234q0 -24 -18 -33.5t-36 0t-18 32.5z" />
    <glyph glyph-name="G" unicode="G" horiz-adv-x="705" 
d="M617 144q0 -22 -11 -33q-43 -58 -112 -89.5t-143 -30.5q-131 1 -225 97t-91 236q0 114 76.5 206t190.5 114q22 3 52 3q69 0 132 -24t103 -70q14 -17 6.5 -36t-24.5 -22.5t-34 11.5q-41 47 -103.5 65.5t-120.5 3.5q-86 -20 -146 -89.5t-60 -164.5q1 -105 74.5 -182.5
t170.5 -79.5q57 -1 110 23t85 67v133h-180q-22 0 -30 16.5t1 33t29 16.5h212q38 0 38 -37v-167z" />
    <glyph glyph-name="H" unicode="H" horiz-adv-x="683" 
d="M146 612v-273h368v273q0 23 18 32t36.5 0t18.5 -32v-583q0 -23 -18.5 -33t-36.5 -0.5t-18 33.5v247h-368v-247q0 -24 -18 -33t-36 1t-18 32v583q0 23 18 32t36 -0.5t18 -31.5z" />
    <glyph glyph-name="I" unicode="I" horiz-adv-x="220" 
d="M69 25v598q0 18 11.5 28t26 9.5t26 -10.5t11.5 -27v-598q0 -22 -18.5 -31t-37.5 -0.5t-19 31.5z" />
    <glyph glyph-name="J" unicode="J" horiz-adv-x="579" 
d="M418 221v350h-192q-24 0 -33.5 16.5t0 33t33.5 16.5h225q13 0 23.5 -9.5t12.5 -23.5v-383q1 -98 -77.5 -165.5t-180.5 -67.5q-95 0 -163.5 60t-73.5 150q-1 22 16.5 33t36.5 2t21 -34q4 -66 51 -105t112 -39q75 0 132 48t57 118z" />
    <glyph glyph-name="K" unicode="K" horiz-adv-x="627" 
d="M245 390l272 244q18 16 39 9.5t25 -24.5t-11 -35l-265 -235l284 -296q18 -21 11.5 -40t-26 -20.5t-38.5 13.5l-282 298l-106 -93v-183q0 -21 -18 -30.5t-36.5 -0.5t-18.5 31v582q0 22 18.5 30.5t36.5 -0.5t18 -30v-318z" />
    <glyph glyph-name="L" unicode="L" horiz-adv-x="576" 
d="M524 0h-410q-38 0 -38 37v574q0 22 18.5 31t37 0t18.5 -31v-545h374q24 0 34 -16.5t0 -33t-34 -16.5z" />
    <glyph glyph-name="M" unicode="M" horiz-adv-x="802" 
d="M390 241l242 380q17 27 43 20t26 -38v-576q0 -23 -18.5 -32t-36.5 0t-18 32v455l-204 -319q-12 -22 -35 -22t-34 22l-204 318v-454q0 -23 -18.5 -32t-36.5 0t-18 32v576q0 32 26.5 38.5t41.5 -20.5z" />
    <glyph glyph-name="N" unicode="N" horiz-adv-x="691" 
d="M527 258v354q0 20 19 28.5t38 0.5t19 -29v-574q0 -24 -18 -35t-40 -6.5t-32 21.5l-374 501l8 -138v-353q0 -23 -19 -33t-38 -0.5t-19 33.5v573q0 24 15 36t34.5 7.5t31.5 -22.5l385 -515z" />
    <glyph glyph-name="O" unicode="O" horiz-adv-x="745" 
d="M361 -11q-139 0 -231.5 92.5t-92.5 247.5q0 119 73.5 208t191.5 108q49 7 106 0q117 -18 195 -106.5t78 -209.5q0 -151 -94 -245.5t-226 -94.5zM312 578q-91 -14 -145.5 -82t-54.5 -170q0 -121 70.5 -194.5t178.5 -73.5q105 0 175.5 73t70.5 195q0 97 -58 167t-150 85
q-45 6 -87 0z" />
    <glyph glyph-name="P" unicode="P" horiz-adv-x="640" 
d="M148 572v-319h179q93 0 140.5 45.5t45.5 108.5q-1 66 -50 115.5t-132 49.5h-183zM327 188h-179v-161q0 -22 -18 -30.5t-36 0t-18 29.5v576q0 15 11 25t26 10h217q122 0 188 -68t66 -162q0 -96 -66 -157.5t-191 -61.5z" />
    <glyph glyph-name="Q" unicode="Q" horiz-adv-x="753" 
d="M613 3l-54 57q-89 -71 -199 -71q-136 0 -228 92t-92 248q0 122 71 209.5t190 106.5q51 6 106 0q117 -18 194.5 -108.5t77.5 -207.5q-2 -143 -72 -218l57 -59q16 -16 9.5 -35t-24.5 -23t-36 9zM506 215l52 -52q48 60 48 163q0 96 -58.5 166.5t-150.5 85.5q-42 6 -86 0
q-89 -14 -143.5 -84.5t-54.5 -167.5q0 -118 72 -194t175 -76q84 0 151 56l-56 57q-16 16 -9 35.5t25 23t35 -12.5z" />
    <glyph glyph-name="R" unicode="R" horiz-adv-x="657" 
d="M149 570v-284h202q94 0 141 38t45 98q-1 64 -51 106t-135 42h-202zM343 223h-194v-194q0 -22 -18.5 -31t-36.5 0t-18 30v574q0 16 10 25.5t27 9.5h237q124 0 192.5 -61t68.5 -154q0 -78 -44 -129t-134 -66l162 -175q18 -18 11.5 -37t-25.5 -22t-36 11z" />
    <glyph glyph-name="S" unicode="S" horiz-adv-x="646" 
d="M22 140q-6 21 11 33.5t38 8t25 -23.5q18 -56 80 -78.5t137 -22.5q36 0 70.5 6t69 19.5t56 39.5t21.5 62q0 16 -4 29t-14.5 22.5t-19.5 16.5t-29 12.5t-31 8.5t-37.5 6t-38 4.5t-41.5 3.5q-45 4 -70 6.5t-64.5 9.5t-61.5 18.5t-45.5 29.5t-34 45.5t-10.5 63.5q0 91 85 141
t189 50q227 0 278 -139q7 -19 -7 -31.5t-34 -10.5t-27 18q-35 89 -209 89q-28 0 -59.5 -6t-63.5 -18.5t-53 -37t-21 -56.5q0 -21 7 -37t24 -27t33 -18t45.5 -11.5t49.5 -6.5t57 -5q132 -12 179 -28q105 -35 105 -141q0 -54 -28 -95t-73.5 -63t-94 -32t-98.5 -10
q-58 0 -114 12.5t-109 49.5t-68 93z" />
    <glyph glyph-name="T" unicode="T" horiz-adv-x="589" 
d="M24 637h518q23 0 32.5 -17.5t0 -34.5t-32.5 -17h-223q0 -90 0.5 -271.5t0.5 -271.5q0 -17 -12 -27t-26 -10t-25 9.5t-11 27.5v543h-222q-22 0 -31 17t0 34.5t31 17.5z" />
    <glyph glyph-name="U" unicode="U" horiz-adv-x="759" 
d="M589 282v328q0 23 18.5 32.5t37.5 0.5t19 -32v-329q0 -69 -25.5 -125.5t-67.5 -91.5t-94 -53.5t-108 -18.5t-108 18.5t-94 53.5t-67.5 91.5t-25.5 125.5v329q0 21 18.5 29.5t37.5 -0.5t19 -30v-328q0 -52 19 -94.5t50 -68.5t70.5 -40t80.5 -14t80.5 14t70.5 40t50 68.5
t19 94.5z" />
    <glyph glyph-name="V" unicode="V" horiz-adv-x="684" 
d="M300 16l-292 580q-9 20 4.5 35.5t35 14t30.5 -21.5l257 -512l251 510q8 19 28 21.5t34 -12t7 -35.5l-288 -583q-11 -21 -32.5 -21.5t-34.5 24.5z" />
    <glyph glyph-name="W" unicode="W" horiz-adv-x="1170" 
d="M92 626l224 -516l217 445q8 22 33 22t37 -21l218 -446l223 516q8 20 29 23.5t36 -11.5t8 -40l-262 -589q-11 -23 -34 -23.5t-34 22.5l-219 452l-220 -452q-9 -20 -34.5 -21t-35.5 22l-260 589q-8 21 7.5 36.5t37 13.5t29.5 -22z" />
    <glyph glyph-name="X" unicode="X" horiz-adv-x="642" 
d="M89 634l223 -261l222 260q14 17 34.5 12t27 -21.5t-6.5 -34.5l-232 -264l239 -273q16 -20 9 -39t-26 -20.5t-39 15.5l-228 265l-231 -265q-11 -11 -23.5 -14.5t-21.5 1.5t-15 13.5t-5 21t11 23.5l238 272l-231 266q-14 16 -5.5 33.5t26.5 20.5t34 -11z" />
    <glyph glyph-name="Y" unicode="Y" horiz-adv-x="617" 
d="M262 33v224l-253 335q-14 19 -3 36.5t31 17.5t35 -17l226 -309l229 310q12 18 32.5 17t29.5 -16.5t-2 -36.5l-251 -337v-224q0 -17 -11.5 -27t-25.5 -10q-16 0 -26.5 9.5t-10.5 27.5z" />
    <glyph glyph-name="Z" unicode="Z" horiz-adv-x="614" 
d="M576 577l-452 -508h427q22 0 31.5 -16.5t0.5 -34t-32 -18.5h-494q-29 0 -37.5 19t8.5 39l448 513h-405q-21 0 -29.5 16t0 32.5t29.5 17.5h476q30 0 38.5 -19t-9.5 -41z" />
    <glyph glyph-name="bracketleft" unicode="[" horiz-adv-x="256" 
d="M205 640h-75v-675h75q25 0 35 -16.5t-0.5 -33.5t-34.5 -17h-104q-17 0 -29.5 12t-12.5 28v730q0 17 12.5 28.5t29.5 11.5h104q26 0 36.5 -17t0 -34t-36.5 -17z" />
    <glyph glyph-name="backslash" unicode="\" horiz-adv-x="340" 
d="M50 673l299 -715q10 -22 -2 -37.5t-32.5 -13.5t-30.5 23h-1l-299 717q-9 21 4 36t33 13t29 -23z" />
    <glyph glyph-name="bracketright" unicode="]" horiz-adv-x="256" 
d="M117 643h-72q-20 0 -28.5 16.5t0 32.5t28.5 16h104q17 0 29.5 -12t12.5 -28v-731q0 -16 -12.5 -28t-29.5 -12h-104q-24 0 -33 17t1 34t32 17h72v678z" />
    <glyph glyph-name="asciicircum" unicode="^" horiz-adv-x="363" 
d="M208 664l101 -128q14 -16 6 -32t-25.5 -17t-32.5 13l-85 108l-83 -108q-16 -18 -35 -14.5t-23.5 19.5t6.5 32l101 126q16 19 35 19t35 -18z" />
    <glyph glyph-name="underscore" unicode="_" horiz-adv-x="434" 
d="M371 -72h-345q-22 0 -31 16.5t0.5 33.5t30.5 17h345q20 0 28.5 -16.5t0.5 -33.5t-29 -17z" />
    <glyph glyph-name="grave" unicode="`" horiz-adv-x="300" 
d="M115 708l75 -94q10 -14 3 -29t-22.5 -18t-33.5 10l-81 90q-15 19 -5 38t29.5 20t34.5 -17z" />
    <glyph glyph-name="a" unicode="a" 
d="M190 497l-1 -1q45 21 107 19q112 -2 158 -78v38q0 16 9.5 26t26.5 10q16 0 26.5 -10t10.5 -26v-444q0 -16 -10 -26t-27 -10q-36 0 -36 36v48q-21 -42 -68 -66.5t-94 -24.5q-84 0 -144 43q-57 39 -85.5 100t-26.5 135q2 77 42.5 140.5t111.5 90.5zM285 57q71 0 118 41.5
t51 114.5v79q0 71 -44 111t-115 43q-55 1 -103 -27.5t-68 -79.5q-13 -31 -15 -74q-3 -106 73 -170q43 -33 103 -38z" />
    <glyph glyph-name="b" unicode="b" horiz-adv-x="618" 
d="M558 266q2 -89 -39.5 -158t-121.5 -102l1 1q-45 -19 -96 -19q-49 0 -94.5 22t-69.5 66v-47q0 -35 -34 -35q-37 0 -37 35v604q0 16 11.5 25.5t25 9.5t25 -9.5t11.5 -25.5v-199q22 39 66 60t96 21q111 0 182 -70.5t74 -178.5zM308 57q61 5 103 38q76 63 74 170
q-1 39 -15 74q-21 50 -68.5 78.5t-102.5 28.5q-69 -3 -114 -46t-45 -108v-79q0 -71 48.5 -113.5t119.5 -42.5z" />
    <glyph glyph-name="c" unicode="c" horiz-adv-x="538" 
d="M431 395q-53 61 -139 61q-81 0 -132 -58t-51 -145q0 -80 43 -132q54 -66 144 -66q98 0 146 66q12 16 32 12.5t26.5 -20t-7.5 -36.5q-73 -89 -198 -89q-57 0 -110.5 23t-90.5 66q-65 81 -59 196q6 111 78.5 180t186.5 69q109 0 184 -85q14 -16 5.5 -33t-26 -20t-32.5 11z
" />
    <glyph glyph-name="d" unicode="d" horiz-adv-x="617" 
d="M38 266q3 108 74 178.5t182 70.5q52 0 96 -21t66 -60v199q0 16 11.5 25.5t25 9.5t25 -9.5t11.5 -25.5v-604q0 -35 -37 -35q-34 0 -34 35v47q-24 -44 -69.5 -66t-94.5 -22q-51 0 -96 19l1 -1q-80 33 -121.5 102t-39.5 158zM288 57q71 0 119.5 42.5t48.5 113.5v79
q0 65 -45 108t-114 46q-55 0 -102.5 -28.5t-68.5 -78.5q-14 -35 -15 -74q-2 -107 74 -170q42 -33 103 -38z" />
    <glyph glyph-name="e" unicode="e" horiz-adv-x="619" 
d="M372 507h1q85 -23 134.5 -89.5t50.5 -161.5v1q2 -19 -9.5 -32.5t-39.5 -13.5h-395q10 -64 60 -107t123 -43q78 0 133 42q12 11 27.5 11t24.5 -8.5t9.5 -23t-13.5 -28.5q-66 -62 -178 -60q-60 0 -114.5 23t-88.5 66q-53 70 -57.5 159.5t44.5 164.5t138 100q71 21 150 0z
M244 441q-59 -15 -93.5 -61t-39.5 -108h377q-5 64 -42 109.5t-95 60.5h1q-54 15 -108 -1z" />
    <glyph glyph-name="f" unicode="f" horiz-adv-x="350" 
d="M261 436h-96v-408q0 -21 -18.5 -29.5t-36.5 0t-18 29.5v408h-54q-18 0 -25.5 15t0.5 30.5t26 15.5h53v22q0 46 25.5 81t62 50.5t80 11t77.5 -30.5q16 -14 11.5 -32.5t-20.5 -23.5t-32 5q-23 17 -52 18t-54 -21.5t-25 -58.5v-21h96q17 0 24 -15.5t0 -30.5t-24 -15z" />
    <glyph glyph-name="g" unicode="g" horiz-adv-x="618" 
d="M372 429q-44 21 -95.5 16.5t-91.5 -35.5h1q-77 -63 -74 -170q2 -43 15 -74q20 -51 68 -79.5t103 -27.5h-1q68 3 114 47t46 107v79q0 100 -85 137zM530 476v-452q0 -105 -69.5 -162.5t-177.5 -57.5q-118 0 -191 69q-19 18 -13 38t25 24t37 -10q37 -28 68.5 -39t73.5 -11
q74 0 125 38t51 111v54q-48 -86 -160 -88q-58 -2 -108 19q-69 28 -109.5 90.5t-42.5 139.5q-2 89 39 158t121 102q44 17 94 17t95.5 -19.5t68.5 -58.5v38q0 36 36 36q17 0 27 -10t10 -26z" />
    <glyph glyph-name="h" unicode="h" horiz-adv-x="645" 
d="M484 30v264q0 67 -46 111.5t-109 44.5q-76 0 -132 -48t-56 -123v-249q0 -36 -36 -36q-17 0 -27.5 10t-10.5 26v599q0 20 18.5 28.5t37 0t18.5 -28.5v-210q26 50 77 74.5t112 24.5q93 0 160 -60.5t67 -163.5v-264q0 -36 -36 -36q-17 0 -27 10t-10 26z" />
    <glyph glyph-name="i" unicode="i" horiz-adv-x="202" 
d="M59 26v450q0 20 18.5 29t36.5 0.5t18 -28.5v-451q0 -21 -18 -29t-36.5 0.5t-18.5 28.5zM133 629v-45q0 -21 -18.5 -30t-37.5 -0.5t-19 30.5v45q0 16 11.5 25.5t26 9.5t26 -9.5t11.5 -25.5z" />
    <glyph glyph-name="j" unicode="j" horiz-adv-x="209" 
d="M36 -176q-34 -13 -47.5 17t18.5 47q36 20 48.5 46.5t12.5 65.5v30v447q0 15 10 24.5t27 9.5q14 0 25 -10t11 -24v-441q0 -40 -1.5 -61.5t-10.5 -52.5t-32 -54.5t-61 -43.5zM142 629v-45q0 -21 -18.5 -30t-37.5 -0.5t-19 30.5v45q0 16 11.5 25.5t26 9.5t26 -9.5
t11.5 -25.5z" />
    <glyph glyph-name="k" unicode="k" horiz-adv-x="493" 
d="M209 335l180 168q18 17 39 11t25 -24t-12 -37l-187 -173l206 -227q16 -19 7 -38t-28 -20.5t-36 15.5l-204 229l-59 -53v-156q0 -21 -18 -30.5t-36.5 -0.5t-18.5 31v598q0 19 18.5 27t36.5 0t18 -27v-361z" />
    <glyph glyph-name="l" unicode="l" horiz-adv-x="202" 
d="M132 630v-600q0 -14 -10.5 -24t-25.5 -10q-16 0 -26.5 10t-10.5 24v600q0 14 10.5 24t26.5 10q15 0 25.5 -10t10.5 -24z" />
    <glyph glyph-name="m" unicode="m" horiz-adv-x="1068" 
d="M908 29v265q-1 64 -46 106t-109 42q-80 0 -134 -54t-54 -139v-220q0 -16 -10 -25.5t-27 -9.5t-27 9.5t-10 25.5v248q0 97 -69 141q-37 23 -86 23q-76 0 -131.5 -52.5t-55.5 -134.5v-225q0 -22 -18.5 -30.5t-36.5 0.5t-18 30v447q0 14 10.5 24.5t25.5 10.5q16 0 25.5 -10
t9.5 -25v-69q58 104 188 104q69 0 125 -34t78 -98q26 64 84 98t128 34q92 0 161.5 -58t69.5 -156v-268q0 -16 -10 -25.5t-27 -9.5q-36 0 -36 35z" />
    <glyph glyph-name="n" unicode="n" horiz-adv-x="645" 
d="M484 29v265q0 67 -46 111.5t-109 44.5q-75 0 -131.5 -54.5t-56.5 -134.5v-232q0 -35 -36 -35q-17 0 -27.5 9.5t-10.5 25.5v448q0 22 18 31t36 0t18 -32v-62q26 52 77.5 78t113.5 26q93 0 160 -60.5t67 -163.5v-265q0 -35 -36 -35q-17 0 -27 9.5t-10 25.5z" />
    <glyph glyph-name="o" unicode="o" horiz-adv-x="609" 
d="M297 -9q-125 0 -200 90q-66 77 -61 192q8 85 56 148.5t129 86.5q31 9 76 9q41 0 74 -9q81 -23 130 -86.5t56 -148.5q6 -113 -60 -192q-75 -90 -200 -90zM351 442q-28 7 -55 7t-53 -7q-62 -16 -97.5 -68.5t-35.5 -121.5q0 -76 44 -127q55 -66 143 -66q86 0 144 66
q44 53 44 125q0 70 -36 123t-98 69z" />
    <glyph glyph-name="p" unicode="p" horiz-adv-x="620" 
d="M558 238q-3 -108 -74 -178.5t-182 -70.5q-52 0 -96 20.5t-66 59.5v-215q0 -16 -11.5 -25.5t-25 -9.5t-25 9.5t-11.5 25.5v621q0 35 37 35q34 0 34 -35v-47q24 44 69.5 66t94.5 22q51 0 96 -19l-1 1q80 -33 121.5 -102t39.5 -158zM308 447q-71 0 -119.5 -42.5
t-48.5 -113.5v-79q0 -65 45 -108t114 -46q55 0 102.5 28.5t68.5 78.5q14 35 15 74q2 107 -74 170q-42 33 -103 38z" />
    <glyph glyph-name="q" unicode="q" horiz-adv-x="621" 
d="M40 238q-2 89 39.5 158t121.5 102l-1 -1q45 19 96 19q49 0 94.5 -22t69.5 -66v47q0 35 34 35q37 0 37 -35v-621q0 -16 -11.5 -25.5t-25 -9.5t-25 9.5t-11.5 25.5v215q-22 -39 -66 -59.5t-96 -20.5q-111 0 -182 70.5t-74 178.5zM290 447q-61 -5 -103 -38q-76 -63 -74 -170
q1 -39 15 -74q21 -50 68.5 -78.5t102.5 -28.5q69 3 114 46t45 108v79q0 71 -48.5 113.5t-119.5 42.5z" />
    <glyph glyph-name="r" unicode="r" horiz-adv-x="337" 
d="M135 476v-50q41 85 149 85q38 0 38 -35q0 -34 -38 -34q-73 0 -110 -51t-37 -132v-226q0 -15 -10.5 -25t-25.5 -10q-17 0 -27 9.5t-10 25.5v443q0 21 17.5 30.5t35.5 1t18 -31.5z" />
    <glyph glyph-name="s" unicode="s" horiz-adv-x="535" 
d="M28 113q-6 20 10 33t36 8t24 -28q7 -32 54.5 -50t106.5 -18q29 0 62 7.5t62.5 29.5t29.5 54q0 22 -9.5 36t-38 21.5t-42 9.5t-58.5 5q-2 0 -3 0.5t-3 0.5h-3q-38 4 -55 6t-50 8t-49 15t-35 23.5t-27 37t-8 52.5q0 50 35.5 86.5t83 51.5t99.5 15q179 0 219 -103
q7 -21 -7.5 -35t-34.5 -11.5t-26 20.5q-24 62 -151 62q-52 0 -98.5 -22.5t-46.5 -64.5q0 -21 10.5 -34.5t29.5 -19.5t42 -9t52 -5q13 0 20 -1q37 -3 56 -5.5t51 -8.5t49 -15.5t36 -24.5t27 -38t8 -53q0 -45 -23 -77.5t-60 -48.5t-73 -23.5t-71 -7.5t-69 5t-69.5 17.5
t-60.5 38t-32 60.5z" />
    <glyph glyph-name="t" unicode="t" horiz-adv-x="385" 
d="M178 509h109q21 0 30 -15.5t0 -31.5t-30 -16h-109v-270q0 -53 15.5 -85t61.5 -32q29 0 47 11q21 9 36.5 0.5t15 -28.5t-21.5 -32q-30 -17 -77 -17q-149 0 -149 183v270h-66q-22 0 -30.5 16t0.5 31.5t30 15.5h66v116q0 23 18 32t36 -0.5t18 -31.5v-116z" />
    <glyph glyph-name="u" unicode="u" horiz-adv-x="642" 
d="M138 479v-265q0 -67 46 -111.5t109 -44.5q75 0 131.5 54.5t56.5 134.5v232q0 35 36 35q17 0 27.5 -9.5t10.5 -25.5v-448q0 -22 -18 -31t-36 0t-18 32v63q-26 -52 -77.5 -78.5t-113.5 -26.5q-93 0 -160 60.5t-67 163.5v265q0 35 36 35q17 0 27 -9.5t10 -25.5z" />
    <glyph glyph-name="v" unicode="v" horiz-adv-x="555" 
d="M236 12l-231 456q-11 31 22 43.5t47 -16.5q56 -112 196 -390l198 392q7 18 27 19.5t33 -12t5 -32.5l-231 -459q-10 -21 -30.5 -22.5t-35.5 21.5z" />
    <glyph glyph-name="w" unicode="w" horiz-adv-x="909" 
d="M224 11l-202 465q-7 20 7.5 33t34.5 11.5t27 -16.5l171 -391l158 328q10 25 34 25t35 -25l160 -329l167 388q7 18 27 20t34 -11t6 -33l-199 -465q-8 -20 -33 -19.5t-34 19.5l-160 336l-165 -336q-10 -19 -34 -20.5t-34 20.5z" />
    <glyph glyph-name="x" unicode="x" horiz-adv-x="520" 
d="M195 257l-171 204q-23 30 6 49t50 -6l164 -202l177 202q12 17 32.5 13.5t28.5 -19t-2 -33.5l-187 -208l189 -208q15 -17 7 -35t-26.5 -21t-35.5 12l-182 209l-171 -208q-10 -11 -22.5 -13.5t-21.5 2.5t-15.5 13.5t-5 21t11.5 23.5z" />
    <glyph glyph-name="y" unicode="y" horiz-adv-x="559" 
d="M228 35l-219 431q-9 19 4.5 35t34 15.5t29.5 -21.5l193 -386l191 387q9 19 29 20t33.5 -13t5.5 -34l-321 -638q-11 -22 -31.5 -25t-33 12.5t-3.5 37.5z" />
    <glyph glyph-name="z" unicode="z" horiz-adv-x="529" 
d="M471 446l-343 -379l321 1q23 0 33 -17t1 -34t-33 -17h-391q-30 0 -38 22.5t12 39.5l338 378q-53 0 -150 -0.5t-150 -0.5q-22 0 -31 17.5t0.5 35t30.5 17.5h371q27 0 37 -22.5t-8 -41.5v1z" />
    <glyph glyph-name="braceleft" unicode="{" horiz-adv-x="261" 
d="M18 292q0 13 7.5 23t20.5 11q20 2 28 10q16 16 16 81v150q0 72 24 108t99 36q21 0 30 -16.5t0.5 -33.5t-30.5 -17q-31 0 -41 -16.5t-10 -61.5v-146v-15v-17t-0.5 -16t-2 -17t-4 -14.5t-6 -15.5t-8.5 -12t-12 -12t-16 -9q9 -4 16 -8.5t12 -12t8.5 -12.5t6 -15.5t4 -15
t2 -17.5t0.5 -16v-17v-15v-140q0 -45 10 -61.5t41 -16.5q22 0 30.5 -16.5t-0.5 -33.5t-30 -17q-75 0 -99 36t-24 108v144q0 65 -16 81q-8 8 -28 10q-13 1 -20.5 11t-7.5 24z" />
    <glyph glyph-name="bar" unicode="|" horiz-adv-x="154" 
d="M36 -61v719q0 15 10.5 25t25.5 10q17 0 27 -9.5t10 -25.5v-719q0 -34 -37 -34q-15 0 -25.5 9t-10.5 25z" />
    <glyph glyph-name="braceright" unicode="}" horiz-adv-x="270" 
d="M239 292q0 -14 -7.5 -24t-20.5 -11q-20 -2 -28 -10q-16 -16 -16 -81v-144q0 -72 -24 -108t-99 -36q-21 0 -30 16.5t-0.5 33.5t30.5 17q31 0 41 16.5t10 61.5v140v15v17t0.5 16t2 17.5t4 15t6 15.5t8.5 12.5t12 12t16 8.5q-9 4 -16 9t-12 12t-8.5 12t-6 15.5t-4 14.5
t-2 17t-0.5 16v17v15v146q0 45 -10 61.5t-41 16.5q-22 0 -30.5 17t0.5 33.5t30 16.5q75 0 99 -36t24 -108v-150q0 -65 16 -81q8 -8 28 -10q13 -1 20.5 -11t7.5 -23z" />
    <glyph glyph-name="asciitilde" unicode="~" horiz-adv-x="516" 
d="M13 245q18 106 113 106q46 0 122.5 -34t93.5 -39q60 -13 73 45q3 21 21.5 27.5t34 -5t12.5 -34.5q-7 -51 -37 -77.5t-76 -26.5q-43 0 -123.5 39t-119.5 39q-17 0 -31.5 -12.5t-17.5 -38.5q-4 -20 -21.5 -25.5t-32 5.5t-11.5 31z" />
    <glyph glyph-name="exclamdown" unicode="&#xa1;" horiz-adv-x="150" 
d="M33 -108v441q0 22 18.5 30.5t37.5 -0.5t19 -30v-441q0 -23 -19 -32t-37.5 0.5t-18.5 31.5zM30 442v34q0 22 19.5 29.5t39 -1t19.5 -28.5v-34q0 -21 -19.5 -30t-39 -0.5t-19.5 30.5z" />
    <glyph glyph-name="cent" unicode="&#xa2;" horiz-adv-x="510" 
d="M230 -61v58q-104 19 -160.5 92.5t-54.5 182.5q1 86 50.5 148.5t130.5 84.5q5 2 34 7v52q0 18 17 26t34.5 0.5t17.5 -26.5v-52q95 -14 153 -83q14 -17 5.5 -36.5t-26.5 -22.5t-35 16v-1q-38 44 -97 55v-376q72 10 113 67q12 17 33 12.5t27.5 -22.5t-7.5 -39l1 1
q-60 -76 -167 -88v-56q0 -23 -17.5 -31t-34.5 1.5t-17 29.5zM88 249q0 -65 38.5 -116t103.5 -67v374l-14 -2h1q-129 -33 -129 -189z" />
    <glyph glyph-name="yen" unicode="&#xa5;" horiz-adv-x="614" 
d="M262 128h-124q-21 2 -29.5 17.5t1 29.5t30.5 14h122v52h-124q-21 2 -29.5 17.5t1 30t30.5 14.5h83l-218 292q-12 19 -2.5 37t27 18.5t32.5 -17.5l234 -315l234 316q13 14 30.5 12.5t28.5 -17t1 -31.5l-220 -295h82q23 0 31.5 -15.5t-0.5 -31t-31 -15.5h-121v-52h121
q20 0 29 -15t1 -30.5t-30 -15.5h-121v-96q0 -23 -17.5 -32t-35 0.5t-16.5 31.5v96z" />
    <glyph glyph-name="dieresis" unicode="&#xa8;" horiz-adv-x="378" 
d="M280 708q17 0 31 -12t14 -30q0 -22 -13.5 -33t-31.5 -11t-31.5 12.5t-13.5 31.5q0 18 13.5 30t31.5 12zM84 708q16 0 30 -12t14 -30q0 -21 -13.5 -32.5t-30.5 -11.5q-18 0 -31.5 12.5t-13.5 31.5q0 18 13.5 30t31.5 12z" />
    <glyph glyph-name="copyright" unicode="&#xa9;" horiz-adv-x="499" 
d="M244 547q97 0 165.5 -68t68.5 -165q0 -96 -68.5 -164t-165.5 -68t-165.5 68t-68.5 164q0 97 68.5 165t165.5 68zM244 479q-68 0 -115.5 -48t-47.5 -117q0 -68 48 -116.5t115 -48.5t115 48.5t48 116.5q0 69 -47.5 117t-115.5 48zM286 358v1q-16 16 -39 16q-18 0 -36 -12
l1 1q-20 -17 -20 -51q0 -25 15 -41q15 -18 41 -18q31 0 45 21q7 8 28 14q14 2 25.5 -5.5t13.5 -23.5q2 -17 -7 -26q-36 -50 -103 -50q-58 0 -98 42q-33 39 -33 88q0 25 5 41q13 37 42 62h-1q12 10 35 21q24 7 47 7q57 0 93 -40l-1 1q9 -12 11 -21q2 -29 -35 -39
q-14 -3 -29 12z" />
    <glyph glyph-name="guillemotleft" unicode="&#xab;" horiz-adv-x="423" 
d="M231 401l-146 -141l146 -141q12 -13 12 -25q0 -15 -9.5 -25t-26.5 -10q-18 0 -28 13l3 -2l-167 161v-1q-33 30 2 61v-1l166 161h-1q10 10 25 10q14 0 25 -10.5t11 -24.5q0 -12 -12 -25zM250 260l145 -141q12 -12 12 -25q0 -14 -10.5 -24.5t-25.5 -10.5q-16 0 -28 13l3 -2
l-167 161v-1q-33 30 2 61v-1l166 161h-1q12 10 25 10q15 0 25.5 -10.5t10.5 -24.5q0 -13 -12 -25z" />
    <glyph glyph-name="registered" unicode="&#xae;" horiz-adv-x="479" 
d="M232 535q96 0 162.5 -66.5t66.5 -159.5q0 -94 -66.5 -160.5t-162.5 -66.5q-94 0 -161 66.5t-67 160.5q0 93 67 159.5t161 66.5zM232 471q-65 0 -112.5 -47.5t-47.5 -114.5t47 -114.5t113 -47.5q67 0 113.5 47t46.5 115q0 67 -46.5 114.5t-113.5 47.5zM191 431
q14 0 24.5 -9.5t9.5 -30.5q22 42 69 42q15 0 26 -9.5t11 -25.5q0 -14 -10 -24t-27 -10q-30 0 -47.5 -20t-17.5 -52v-74q0 -16 -10.5 -25.5t-27.5 -9.5q-36 0 -36 35v178q-1 16 9 25.5t27 9.5z" />
    <glyph glyph-name="degree" unicode="&#xb0;" horiz-adv-x="202" 
d="M94 660q36 0 61.5 -24.5t25.5 -59.5q0 -36 -25.5 -61t-61.5 -25q-37 0 -62.5 24.5t-25.5 61.5q0 35 25.5 59.5t62.5 24.5zM95 609q-14 0 -24 -9.5t-10 -22.5q0 -14 10.5 -25t23.5 -11t23 9.5t10 25.5q0 14 -10 23.5t-23 9.5z" />
    <glyph glyph-name="plusminus" unicode="&#xb1;" horiz-adv-x="474" 
d="M264 481v-133h131q19 0 27.5 -16t0.5 -32.5t-28 -16.5h-131v-137q0 -21 -17.5 -30t-35.5 0t-19 30v137h-131q-21 0 -29 16.5t0.5 32.5t28.5 16h131v133q0 23 18 31.5t36 -1t18 -30.5zM395 0h-334q-13 0 -22 6.5t-11 16t0 19t11 16.5t22 8h334q21 0 29.5 -16t0 -32.5
t-29.5 -17.5z" />
    <glyph glyph-name="acute" unicode="&#xb4;" horiz-adv-x="231" 
d="M52 574l73 89q19 28 47 15q24 -12 20 -34q-2 -9 -9 -17l-81 -88q-24 -23 -44.5 -5.5t-5.5 40.5z" />
    <glyph glyph-name="paragraph" unicode="&#xb6;" horiz-adv-x="481" 
d="M418 567h-27v-635q0 -14 -9.5 -24t-26.5 -10t-27.5 10t-10.5 24v635h-125v-635q0 -14 -9.5 -24t-26.5 -10q-16 0 -26.5 10t-10.5 24v408q-48 14 -78 54t-30 91q0 62 45.5 107t107.5 45h254q17 0 27 -10t10 -26q0 -34 -37 -34z" />
    <glyph glyph-name="middot" unicode="&#xb7;" horiz-adv-x="122" 
d="M57 346q21 0 34 -13.5t13 -33.5t-13 -32.5t-34 -12.5t-35 12.5t-14 32.5t14 33.5t35 13.5z" />
    <glyph glyph-name="cedilla" unicode="&#xb8;" horiz-adv-x="304" 
d="M205 58l-19 -52q42 3 64.5 -20t22.5 -55q0 -50 -44 -74.5t-96.5 -14t-74.5 49.5q-9 19 0 35t24.5 15t27.5 -17q10 -17 33.5 -24t43 0.5t19.5 27.5q0 22 -27 29.5t-45 -1.5l-24 28l23 74z" />
    <glyph glyph-name="guillemotright" unicode="&#xbb;" horiz-adv-x="421" 
d="M324 258l-151 145q-7 14 -7 22q0 14 10.5 24t24.5 10q16 0 26 -10h-1l166 -161v1q33 -29 2 -60l-167 -160h1q-10 -12 -27 -12q-14 0 -24.5 10.5t-10.5 24.5q0 12 11 25zM25 117l146 141l-150 145q-8 13 -8 22q0 14 10.5 24t25.5 10q14 0 26 -10h-1l166 -161v1
q33 -30 1 -60l-166 -160h1q-12 -12 -27 -12t-25.5 10.5t-10.5 24.5q0 13 12 25z" />
    <glyph glyph-name="questiondown" unicode="&#xbf;" horiz-adv-x="603" 
d="M90 56q-1 -69 64.5 -105.5t141.5 -36.5q67 0 122 22t72 75q5 17 24 19t33 -10.5t8 -31.5q-13 -40 -42 -69t-67 -43.5t-74.5 -20.5t-76.5 -6q-48 0 -96 12.5t-90 37t-67.5 66t-24.5 93.5q1 38 14 66.5t40.5 49t47 31t57.5 26.5q33 13 50.5 22.5t33.5 27t16 40.5v24
q0 19 18 27.5t36 0.5t18 -28v-25q0 -31 -10.5 -54t-35 -40.5t-42 -26.5t-51.5 -24q-28 -12 -44 -20t-35.5 -22t-29 -33t-10.5 -44zM270 444v26q0 22 21 29.5t41.5 -1t20.5 -28.5v-26q0 -21 -20.5 -30t-41.5 -0.5t-21 30.5z" />
    <glyph glyph-name="Agrave" unicode="&#xc0;" horiz-adv-x="697" 
d="M494 231l-157 315l-158 -315h315zM525 168h-376l-81 -158q-9 -18 -28.5 -18.5t-32.5 14t-5 33.5l302 595q9 19 33 19q22 0 32 -19l301 -592q16 -27 -10 -42q-25 -15 -46 0q-7 5 -11 13zM287 806l75 -85q10 -13 3 -27t-22.5 -16.5t-33.5 9.5l-81 82q-21 24 2 43
q22 19 45 5q7 -4 12 -11z" />
    <glyph glyph-name="Aacute" unicode="&#xc1;" horiz-adv-x="697" 
d="M337 546l157 -315h-315zM149 168h376l78 -155q12 -25 43 -18q26 5 29 26q2 10 -5 21l-301 592q-10 19 -32 19q-24 0 -33 -19l-302 -595q-8 -19 5 -33.5t32.5 -14t28.5 18.5zM315 724l75 81q20 26 49 13q24 -10 20 -31q-2 -8 -9 -15l-83 -79q-16 -14 -33 -11t-21.5 16
t2.5 26z" />
    <glyph glyph-name="Acircumflex" unicode="&#xc2;" horiz-adv-x="697" 
d="M337 546l157 -315h-315zM149 168h376l78 -155q12 -25 43 -18q26 5 29 26q2 10 -5 21l-301 592q-10 19 -32 19q-24 0 -33 -19l-302 -595q-8 -19 5 -33.5t32.5 -14t28.5 18.5zM334 718l-67 -52q-15 -11 -31.5 -6.5t-19.5 17.5t10 29l79 66q30 23 57 0l80 -66q23 -20 3 -38
q-18 -17 -42 -4q-2 1 -5 3z" />
    <glyph glyph-name="Atilde" unicode="&#xc3;" horiz-adv-x="697" 
d="M337 546l157 -315h-315zM149 168h376l78 -155q12 -25 43 -18q26 5 29 26q2 10 -5 21l-301 592q-10 19 -32 19q-24 0 -33 -19l-302 -595q-8 -19 5 -33.5t32.5 -14t28.5 18.5zM204 740q27 43 80 43q20 0 43.5 -11t37 -20t30.5 -10.5t25 16.5q13 27 40 18q22 -8 21 -29
q0 -7 -4 -14q-20 -41 -60 -48.5t-81 18.5q-62 40 -83 1q-10 -15 -27.5 -13.5t-24.5 15t3 34.5z" />
    <glyph glyph-name="Adieresis" unicode="&#xc4;" horiz-adv-x="697" 
d="M337 546l157 -315h-315zM149 168h376l78 -155q12 -25 43 -18q26 5 29 26q2 10 -5 21l-301 592q-10 19 -32 19q-24 0 -33 -19l-302 -595q-8 -19 5 -33.5t32.5 -14t28.5 18.5zM435 766q17 0 31 -12t14 -30q0 -22 -13.5 -33t-31.5 -11t-31.5 12.5t-13.5 31.5q0 18 13.5 30
t31.5 12zM239 766q16 0 30 -12t14 -30q0 -21 -13.5 -32.5t-30.5 -11.5q-18 0 -31.5 12.5t-13.5 31.5q0 18 13.5 30t31.5 12z" />
    <glyph glyph-name="Aring" unicode="&#xc5;" horiz-adv-x="697" 
d="M337 546l157 -315h-315zM149 168h376l78 -155q12 -25 43 -18q26 5 29 26q2 10 -5 21l-301 592q-10 19 -32 19q-24 0 -33 -19l-302 -595q-8 -19 5 -33.5t32.5 -14t28.5 18.5zM337 822q37 0 63 -22.5t26 -54.5q0 -33 -26 -55.5t-63 -22.5q-38 0 -64 22.5t-26 55.5
q0 32 26 54.5t64 22.5zM337 773q-12 0 -22 -8t-10 -20t10 -21t22 -9q11 0 20.5 9t9.5 21t-9 20t-21 8z" />
    <glyph glyph-name="AE" unicode="&#xc6;" horiz-adv-x="998" 
d="M539 282v-214h366q20 0 28.5 -17t0 -34t-28.5 -17h-392q-20 0 -33 13t-13 31v128h-276l-136 -171q-14 -18 -34.5 -15.5t-27.5 18.5t4 36l463 580q10 16 31 16h22h393q22 0 29.5 -16.5t-1.5 -33t-29 -16.5h-366v-222h348q20 0 29.5 -16.5t1.5 -33t-31 -16.5h-348zM240 234
h227v292z" />
    <glyph glyph-name="Ccedilla" unicode="&#xc7;" horiz-adv-x="667" 
d="M622 114q-39 -56 -108 -89q-52 -25 -106 -32l-13 -36q40 3 62 -18t22 -51q0 -49 -42.5 -73t-93.5 -14t-73 47q-9 18 0 33.5t24 15.5t27 -15q15 -25 54 -24.5t39 28.5q0 21 -26.5 28t-43.5 -2l-23 26l17 52q-124 10 -211.5 104.5t-87.5 232.5q0 122 77 211t194 107
q183 25 298 -96q14 -16 6 -33.5t-25.5 -21t-32.5 9.5q-85 90 -235 73q-95 -15 -152.5 -80t-57.5 -171q0 -113 75 -190.5t180 -77.5q58 0 116 29q50 26 82 67q11 16 31 13t28.5 -18.5t-1.5 -34.5z" />
    <glyph glyph-name="Egrave" unicode="&#xc8;" horiz-adv-x="639" 
d="M148 283v-217h395q20 0 29.5 -16.5t1.5 -33t-31 -16.5h-421q-20 0 -33 13t-13 31v549q0 18 13 30.5t33 12.5h422q20 0 28 -16t-0.5 -32t-28.5 -16h-395v-225h376q19 0 27 -16t0.5 -32t-27.5 -16h-376zM312 816l76 -83q14 -18 -4 -34q-21 -18 -48 0l-2 2l-82 79
q-21 22 1 41t46 6q8 -4 13 -11z" />
    <glyph glyph-name="Eacute" unicode="&#xc9;" horiz-adv-x="639" 
d="M148 66v217h376q20 0 27.5 16t-0.5 32t-27 16h-376v225h395q20 0 28.5 16t0.5 32t-28 16h-422q-20 0 -33 -12.5t-13 -30.5v-549q0 -18 13 -31t33 -13h421q23 0 31 16.5t-1.5 33t-29.5 16.5h-395zM301 728l77 81q21 27 51 13q25 -11 19 -32q-2 -7 -9 -14l-85 -79
q-16 -14 -33.5 -11t-22.5 16t3 26z" />
    <glyph glyph-name="Ecircumflex" unicode="&#xca;" horiz-adv-x="639" 
d="M148 66v217h376q20 0 27.5 16t-0.5 32t-27 16h-376v225h395q20 0 28.5 16t0.5 32t-28 16h-422q-20 0 -33 -12.5t-13 -30.5v-549q0 -18 13 -31t33 -13h421q23 0 31 16.5t-1.5 33t-29.5 16.5h-395zM344 743l-67 -51q-15 -11 -31.5 -7t-19.5 17.5t10 28.5l79 66q30 21 57 0
l80 -66q22 -18 5 -36t-42 -7q-3 2 -7 5z" />
    <glyph glyph-name="Edieresis" unicode="&#xcb;" horiz-adv-x="639" 
d="M148 66v217h376q20 0 27.5 16t-0.5 32t-27 16h-376v225h395q20 0 28.5 16t0.5 32t-28 16h-422q-20 0 -33 -12.5t-13 -30.5v-549q0 -18 13 -31t33 -13h421q23 0 31 16.5t-1.5 33t-29.5 16.5h-395zM442 771q17 0 31 -12t14 -30q0 -22 -13.5 -33t-31.5 -11t-31.5 12.5
t-13.5 31.5q0 18 13.5 30t31.5 12zM246 771q16 0 30 -12t14 -30q0 -21 -13.5 -32.5t-30.5 -11.5q-18 0 -31.5 12.5t-13.5 31.5q0 18 13.5 30t31.5 12z" />
    <glyph glyph-name="Igrave" unicode="&#xcc;" horiz-adv-x="220" 
d="M69 25v598q0 18 11.5 28t26 9.5t26 -10.5t11.5 -27v-598q0 -22 -18.5 -31t-37.5 -0.5t-19 31.5zM52 817l77 -87q10 -13 3 -27.5t-23.5 -17t-34.5 9.5l-83 84q-22 24 2 44q22 19 46 6q8 -5 13 -12z" />
    <glyph glyph-name="Iacute" unicode="&#xcd;" horiz-adv-x="220" 
d="M69 25v598q0 18 11.5 28t26 9.5t26 -10.5t11.5 -27v-598q0 -22 -18.5 -31t-37.5 -0.5t-19 31.5zM76 729l74 82q19 26 47 13q24 -10 20 -31q-2 -8 -9 -15l-81 -81q-16 -14 -32.5 -10.5t-21 16.5t2.5 26z" />
    <glyph glyph-name="Icircumflex" unicode="&#xce;" horiz-adv-x="220" 
d="M69 25v598q0 18 11.5 28t26 9.5t26 -10.5t11.5 -27v-598q0 -22 -18.5 -31t-37.5 -0.5t-19 31.5zM106 741l-65 -52q-23 -18 -42.5 0t2.5 40l77 66q29 23 56 0l78 -66q15 -14 9.5 -28.5t-21 -17.5t-31.5 7z" />
    <glyph glyph-name="Idieresis" unicode="&#xcf;" horiz-adv-x="220" 
d="M69 25v598q0 18 11.5 28t26 9.5t26 -10.5t11.5 -27v-598q0 -22 -18.5 -31t-37.5 -0.5t-19 31.5zM204 767q17 0 31 -12t14 -30q0 -22 -13.5 -33t-31.5 -11t-31.5 12.5t-13.5 31.5q0 18 13.5 30t31.5 12zM8 767q16 0 30 -12t14 -30q0 -21 -13.5 -32.5t-30.5 -11.5
q-18 0 -31.5 12.5t-13.5 31.5q0 18 13.5 30t31.5 12z" />
    <glyph glyph-name="Eth" unicode="&#xd0;" horiz-adv-x="647" 
d="M302 0h-218q-19 0 -32.5 13t-13.5 30v242h-34q-22 0 -31.5 15.5t-0.5 30.5t32 15h34v248q0 17 13.5 29.5t32.5 12.5h218q95 0 164.5 -47t101.5 -118t32 -153t-32 -153t-101.5 -118t-164.5 -47zM189 285h-78v-218h191q106 0 165.5 74.5t59.5 176.5t-59.5 177t-165.5 75
h-191v-224h78q20 0 29 -15t1 -30.5t-30 -15.5z" />
    <glyph glyph-name="Ntilde" unicode="&#xd1;" horiz-adv-x="691" 
d="M527 612v-354l10 -151l-385 515q-12 18 -31.5 22.5t-34.5 -7.5t-15 -36v-573q0 -24 19 -33.5t38 0.5t19 33v353l-8 138l374 -501q10 -17 32 -21.5t40 6.5t18 35v574q0 21 -19 29t-38 -0.5t-19 -28.5zM208 745q27 43 80 43q20 0 43.5 -11t37 -20t30.5 -10.5t25 16.5
q13 27 40 18q22 -8 21 -29q0 -7 -4 -14q-20 -41 -60 -48.5t-81 18.5q-62 40 -83 1q-10 -15 -27.5 -13.5t-24.5 15t3 34.5z" />
    <glyph glyph-name="Ograve" unicode="&#xd2;" horiz-adv-x="745" 
d="M361 -11q-139 0 -231.5 92.5t-92.5 247.5q0 119 73.5 208t191.5 108q49 7 106 0q117 -18 195 -106.5t78 -209.5q0 -151 -94 -245.5t-226 -94.5zM312 578q-91 -14 -145.5 -82t-54.5 -170q0 -121 70.5 -194.5t178.5 -73.5q105 0 175.5 73t70.5 195q0 97 -58 167t-150 85
q-45 6 -87 0zM323 812l81 -84q15 -17 -3 -33q-22 -19 -51 -2q-1 1 -3 2l-88 81q-22 23 2 42q23 18 48 6q8 -5 14 -12z" />
    <glyph glyph-name="Oacute" unicode="&#xd3;" horiz-adv-x="745" 
d="M361 -11q132 0 226 94.5t94 245.5q0 121 -78 209.5t-195 106.5q-57 7 -106 0q-118 -19 -191.5 -108t-73.5 -208q0 -155 92.5 -247.5t231.5 -92.5zM312 578q42 6 87 0q92 -15 150 -85t58 -167q0 -122 -70.5 -195t-175.5 -73q-108 0 -178.5 73.5t-70.5 194.5
q0 102 54.5 170t145.5 82zM341 728l78 81q21 26 51 13q24 -10 20 -31q-1 -8 -9 -15l-86 -79q-26 -22 -49 -4q-18 16 -5 35z" />
    <glyph glyph-name="Ocircumflex" unicode="&#xd4;" horiz-adv-x="745" 
d="M361 -11q132 0 226 94.5t94 245.5q0 121 -78 209.5t-195 106.5q-57 7 -106 0q-118 -19 -191.5 -108t-73.5 -208q0 -155 92.5 -247.5t231.5 -92.5zM312 578q42 6 87 0q92 -15 150 -85t58 -167q0 -122 -70.5 -195t-175.5 -73q-108 0 -178.5 73.5t-70.5 194.5
q0 102 54.5 170t145.5 82zM365 746l-66 -51q-15 -11 -31.5 -7t-19.5 17.5t10 28.5l78 66q30 21 57 0l80 -66q22 -19 3 -37q-19 -17 -42 -4l-5 3z" />
    <glyph glyph-name="Otilde" unicode="&#xd5;" horiz-adv-x="745" 
d="M361 -11q132 0 226 94.5t94 245.5q0 121 -78 209.5t-195 106.5q-57 7 -106 0q-118 -19 -191.5 -108t-73.5 -208q0 -155 92.5 -247.5t231.5 -92.5zM312 578q42 6 87 0q92 -15 150 -85t58 -167q0 -122 -70.5 -195t-175.5 -73q-108 0 -178.5 73.5t-70.5 194.5
q0 102 54.5 170t145.5 82zM231 752q27 43 80 43q20 0 43.5 -11t37 -20t30.5 -10.5t25 16.5q13 27 40 18q22 -8 21 -29q0 -7 -4 -14q-20 -41 -60 -48.5t-81 18.5q-62 40 -83 1q-10 -15 -27.5 -13.5t-24.5 15t3 34.5z" />
    <glyph glyph-name="Odieresis" unicode="&#xd6;" horiz-adv-x="745" 
d="M361 -11q132 0 226 94.5t94 245.5q0 121 -78 209.5t-195 106.5q-57 7 -106 0q-118 -19 -191.5 -108t-73.5 -208q0 -155 92.5 -247.5t231.5 -92.5zM312 578q42 6 87 0q92 -15 150 -85t58 -167q0 -122 -70.5 -195t-175.5 -73q-108 0 -178.5 73.5t-70.5 194.5
q0 102 54.5 170t145.5 82zM460 780q17 0 31 -12t14 -30q0 -22 -13.5 -33t-31.5 -11t-31.5 12.5t-13.5 31.5q0 18 13.5 30t31.5 12zM264 780q16 0 30 -12t14 -30q0 -21 -13.5 -32.5t-30.5 -11.5q-18 0 -31.5 12.5t-13.5 31.5q0 18 13.5 30t31.5 12z" />
    <glyph glyph-name="Oslash" unicode="&#xd8;" horiz-adv-x="745" 
d="M361 -11q-71 0 -134 26l-43 -72q-13 -21 -32 -19.5t-26 18t1 35.5l42 70q-62 44 -97 116.5t-35 165.5q0 119 73.5 208t191.5 108q49 7 106 0q52 -9 95 -30l41 68q12 16 29 16.5t28 -15t1 -34.5l-42 -71q56 -45 88.5 -110t32.5 -140q0 -151 -94 -245.5t-226 -94.5z
M312 578q-91 -14 -145.5 -82t-54.5 -170q0 -141 94 -216l263 446q-37 17 -70 22q-45 6 -87 0zM361 58q105 0 175.5 73t70.5 195q0 118 -83 193l-261 -443q45 -18 98 -18z" />
    <glyph glyph-name="Ugrave" unicode="&#xd9;" horiz-adv-x="759" 
d="M589 282v328q0 23 18.5 32.5t37.5 0.5t19 -32v-329q0 -69 -25.5 -125.5t-67.5 -91.5t-94 -53.5t-108 -18.5t-108 18.5t-94 53.5t-67.5 91.5t-25.5 125.5v329q0 21 18.5 29.5t37.5 -0.5t19 -30v-328q0 -52 19 -94.5t50 -68.5t70.5 -40t80.5 -14t80.5 14t70.5 40t50 68.5
t19 94.5zM334 813l77 -86q10 -13 3 -27t-23 -16.5t-34 9.5l-83 82q-21 24 1 44q21 18 45 6q8 -4 14 -12z" />
    <glyph glyph-name="Uacute" unicode="&#xda;" horiz-adv-x="759" 
d="M589 610v-328q0 -69 -32.5 -120t-81.5 -73.5t-106 -22.5t-106 22.5t-81.5 73.5t-32.5 120v328q0 21 -18.5 30t-37.5 0.5t-19 -29.5v-329q0 -69 25.5 -125.5t67.5 -91.5t94 -53.5t108 -18.5t108 18.5t94 53.5t67.5 91.5t25.5 125.5v329q0 23 -19 32t-37.5 -0.5
t-18.5 -32.5zM332 726l76 79q21 26 51 13q24 -11 19 -31q-2 -7 -9 -14l-85 -79q-16 -13 -33.5 -10t-22 16t3.5 26z" />
    <glyph glyph-name="Ucircumflex" unicode="&#xdb;" horiz-adv-x="759" 
d="M589 610v-328q0 -69 -32.5 -120t-81.5 -73.5t-106 -22.5t-106 22.5t-81.5 73.5t-32.5 120v328q0 21 -18.5 30t-37.5 0.5t-19 -29.5v-329q0 -69 25.5 -125.5t67.5 -91.5t94 -53.5t108 -18.5t108 18.5t94 53.5t67.5 91.5t25.5 125.5v329q0 23 -19 32t-37.5 -0.5
t-18.5 -32.5zM370 748l-67 -51q-14 -11 -30.5 -6.5t-20 17.5t9.5 29l79 64q30 23 58 0l80 -64q23 -20 3 -38q-18 -17 -42 -4q-2 1 -5 3z" />
    <glyph glyph-name="Udieresis" unicode="&#xdc;" horiz-adv-x="759" 
d="M589 610v-328q0 -69 -32.5 -120t-81.5 -73.5t-106 -22.5t-106 22.5t-81.5 73.5t-32.5 120v328q0 21 -18.5 30t-37.5 0.5t-19 -29.5v-329q0 -69 25.5 -125.5t67.5 -91.5t94 -53.5t108 -18.5t108 18.5t94 53.5t67.5 91.5t25.5 125.5v329q0 23 -19 32t-37.5 -0.5
t-18.5 -32.5zM474 779q17 0 31 -12t14 -30q0 -22 -13.5 -33t-31.5 -11t-31.5 12.5t-13.5 31.5q0 18 13.5 30t31.5 12zM278 779q16 0 30 -12t14 -30q0 -21 -13.5 -32.5t-30.5 -11.5q-18 0 -31.5 12.5t-13.5 31.5q0 18 13.5 30t31.5 12z" />
    <glyph glyph-name="Yacute" unicode="&#xdd;" horiz-adv-x="617" 
d="M262 257v-224q0 -18 10.5 -27.5t26.5 -9.5q14 0 25.5 10t11.5 27v224l251 337q13 20 2 36.5t-29.5 16.5t-32.5 -17l-229 -310l-226 309q-13 19 -35 17t-31 -18t3 -36zM255 720l76 83q20 27 49 14q24 -11 20 -33q-2 -8 -9 -15l-84 -82q-16 -14 -33 -11t-22 16.5t3 27.5z
" />
    <glyph glyph-name="Thorn" unicode="&#xde;" horiz-adv-x="634" 
d="M76 31v575q0 20 18 29t36 0.5t18 -30.5v-61h178q123 0 192 -69.5t69 -163.5t-67 -156t-193 -62h-179v-61q0 -24 -18 -33t-36 0.5t-18 31.5zM148 477v-317h179q93 0 140.5 44.5t45.5 106.5q-1 66 -52 116t-134 50h-179z" />
    <glyph glyph-name="germandbls" unicode="&#xdf;" horiz-adv-x="539" 
d="M126 473v-628q0 -20 -18 -28.5t-36.5 -0.5t-18.5 29v628q0 49 17.5 84t47.5 53t62 26t68 8q37 0 70 -8.5t63.5 -26.5t49 -53t18.5 -83q0 -39 -25.5 -78t-62.5 -54q64 -16 98.5 -56t34.5 -99q0 -53 -20 -90.5t-56 -57.5t-77 -29t-91 -9h-57q-22 0 -30 16t1 32.5t29 16.5
h57q171 0 171 121q0 56 -42.5 84.5t-110.5 28.5h-77q-18 0 -26 16.5t0 33.5t26 17h28q67 0 112 28t45 79q0 56 -39 81t-90 25q-50 0 -85.5 -24.5t-35.5 -81.5z" />
    <glyph glyph-name="agrave" unicode="&#xe0;" 
d="M190 497l-1 -1q45 21 107 19q112 -2 158 -78v38q0 16 9.5 26t26.5 10q16 0 26.5 -10t10.5 -26v-444q0 -16 -10 -26t-27 -10q-36 0 -36 36v48q-21 -42 -68 -66.5t-94 -24.5q-84 0 -144 43q-57 39 -85.5 100t-26.5 135q2 77 42.5 140.5t111.5 90.5zM285 57q71 0 118 41.5
t51 114.5v79q0 71 -44 111t-115 43q-55 1 -103 -27.5t-68 -79.5q-13 -31 -15 -74q-3 -106 73 -170q43 -33 103 -38zM262 690l76 -84q10 -12 3 -25.5t-23 -16t-34 8.5l-81 81q-22 23 1 42q22 18 45 5q8 -4 13 -11z" />
    <glyph glyph-name="aacute" unicode="&#xe1;" 
d="M190 497l-1 -1q45 21 107 19q112 -2 158 -78v38q0 16 9.5 26t26.5 10q16 0 26.5 -10t10.5 -26v-444q0 -16 -10 -26t-27 -10q-36 0 -36 36v48q-21 -42 -68 -66.5t-94 -24.5q-84 0 -144 43q-57 39 -85.5 100t-26.5 135q2 77 42.5 140.5t111.5 90.5zM285 57q71 0 118 41.5
t51 114.5v79q0 71 -44 111t-115 43q-55 1 -103 -27.5t-68 -79.5q-13 -31 -15 -74q-3 -106 73 -170q43 -33 103 -38zM266 608l75 78q20 26 49 13q24 -11 19 -30q-3 -8 -9 -14l-83 -77q-15 -13 -32 -10t-21.5 15t2.5 25z" />
    <glyph glyph-name="acircumflex" unicode="&#xe2;" 
d="M190 497l-1 -1q45 21 107 19q112 -2 158 -78v38q0 16 9.5 26t26.5 10q16 0 26.5 -10t10.5 -26v-444q0 -16 -10 -26t-27 -10q-36 0 -36 36v48q-21 -42 -68 -66.5t-94 -24.5q-84 0 -144 43q-57 39 -85.5 100t-26.5 135q2 77 42.5 140.5t111.5 90.5zM285 57q71 0 118 41.5
t51 114.5v79q0 71 -44 111t-115 43q-55 1 -103 -27.5t-68 -79.5q-13 -31 -15 -74q-3 -106 73 -170q43 -33 103 -38zM293 636l-65 -52q-15 -11 -31 -6.5t-19.5 17.5t9.5 29l78 66q29 23 56 0l79 -66q15 -14 9.5 -28.5t-21 -17.5t-31.5 7z" />
    <glyph glyph-name="atilde" unicode="&#xe3;" 
d="M190 497l-1 -1q45 21 107 19q112 -2 158 -78v38q0 16 9.5 26t26.5 10q16 0 26.5 -10t10.5 -26v-444q0 -16 -10 -26t-27 -10q-36 0 -36 36v48q-21 -42 -68 -66.5t-94 -24.5q-84 0 -144 43q-57 39 -85.5 100t-26.5 135q2 77 42.5 140.5t111.5 90.5zM285 57q71 0 118 41.5
t51 114.5v79q0 71 -44 111t-115 43q-55 1 -103 -27.5t-68 -79.5q-13 -31 -15 -74q-3 -106 73 -170q43 -33 103 -38zM170 638q27 43 80 43q20 0 43.5 -11t37 -20t30.5 -10.5t25 16.5q13 27 40 18q22 -8 21 -29q0 -7 -4 -14q-20 -41 -60 -48.5t-81 18.5q-62 40 -83 1
q-10 -15 -27.5 -13.5t-24.5 15t3 34.5z" />
    <glyph glyph-name="adieresis" unicode="&#xe4;" 
d="M190 497l-1 -1q45 21 107 19q112 -2 158 -78v38q0 16 9.5 26t26.5 10q16 0 26.5 -10t10.5 -26v-444q0 -16 -10 -26t-27 -10q-36 0 -36 36v48q-21 -42 -68 -66.5t-94 -24.5q-84 0 -144 43q-57 39 -85.5 100t-26.5 135q2 77 42.5 140.5t111.5 90.5zM285 57q71 0 118 41.5
t51 114.5v79q0 71 -44 111t-115 43q-55 1 -103 -27.5t-68 -79.5q-13 -31 -15 -74q-3 -106 73 -170q43 -33 103 -38zM400 665q17 0 31 -12t14 -30q0 -22 -13.5 -33t-31.5 -11t-31.5 12.5t-13.5 31.5q0 18 13.5 30t31.5 12zM204 665q16 0 30 -12t14 -30q0 -21 -13.5 -32.5
t-30.5 -11.5q-18 0 -31.5 12.5t-13.5 31.5q0 18 13.5 30t31.5 12z" />
    <glyph glyph-name="aring" unicode="&#xe5;" 
d="M190 497l-1 -1q45 21 107 19q112 -2 158 -78v38q0 16 9.5 26t26.5 10q16 0 26.5 -10t10.5 -26v-444q0 -16 -10 -26t-27 -10q-36 0 -36 36v48q-21 -42 -68 -66.5t-94 -24.5q-84 0 -144 43q-57 39 -85.5 100t-26.5 135q2 77 42.5 140.5t111.5 90.5zM285 57q71 0 118 41.5
t51 114.5v79q0 71 -44 111t-115 43q-55 1 -103 -27.5t-68 -79.5q-13 -31 -15 -74q-3 -106 73 -170q43 -33 103 -38zM298 707q36 0 61.5 -24.5t25.5 -59.5q0 -36 -25.5 -61t-61.5 -25q-37 0 -62.5 24.5t-25.5 61.5q0 35 25.5 59.5t62.5 24.5zM298 653q-12 0 -21.5 -9
t-9.5 -21q0 -13 9.5 -23t21.5 -10q11 0 20 10t9 23t-8.5 21.5t-20.5 8.5z" />
    <glyph glyph-name="ae" unicode="&#xe6;" horiz-adv-x="1043" 
d="M198 497l-1 -1q47 21 108 19q46 -1 91 -20t68 -61v48q0 22 18 29.5t35.5 -1.5t17.5 -28v-52q59 86 189 86q41 0 74 -9q86 -23 136 -89.5t51 -161.5v1q2 -50 -50 -50h-398q13 -66 64.5 -104.5t121.5 -40.5q73 -2 134 44h-1q18 13 38 7.5t23.5 -22t-13.5 -37.5
q-66 -62 -178 -60q-129 0 -191 86v-56q0 -22 -17.5 -31t-35.5 0t-18 31v52q-53 -88 -164 -88q-51 0 -96 19l1 -1q-80 33 -121 102t-39 158q2 77 42.5 140.5t110.5 90.5zM378 76h-1q84 41 89 137v79q0 67 -45 108t-118 46q-55 0 -102.5 -28.5t-67.5 -78.5q-13 -31 -15 -74
q-3 -107 74 -170h-1q43 -33 103 -38q40 0 84 19zM726 448q-81 0 -131 -47t-61 -127h377q-5 64 -40 108.5t-93 59.5h1q-24 6 -53 6z" />
    <glyph glyph-name="ccedilla" unicode="&#xe7;" horiz-adv-x="531" 
d="M423 387q-53 61 -135 61q-80 0 -130 -55t-50 -141q0 -74 42 -125q51 -65 142 -65t139 66q12 16 32.5 12t28 -20.5t-5.5 -36.5q-61 -75 -164 -87l-15 -37q41 3 63 -17.5t22 -49.5q0 -50 -43 -73t-93.5 -12t-72.5 47q-9 17 0 33t24.5 17t27.5 -13q16 -25 53.5 -27t38.5 26
q0 20 -26.5 27t-43.5 -2l-24 26l19 56q-98 13 -159 86q-64 80 -58 189q6 110 77 176t184 66q107 0 181 -85q13 -16 4.5 -33t-26 -20t-32.5 11z" />
    <glyph glyph-name="egrave" unicode="&#xe8;" horiz-adv-x="619" 
d="M372 507h1q85 -23 134.5 -89.5t50.5 -161.5v1q2 -19 -9.5 -32.5t-39.5 -13.5h-395q10 -64 60 -107t123 -43q78 0 133 42q12 11 27.5 11t24.5 -8.5t9.5 -23t-13.5 -28.5q-66 -62 -178 -60q-60 0 -114.5 23t-88.5 66q-53 70 -57.5 159.5t44.5 164.5t138 100q71 21 150 0z
M244 441q-59 -15 -93.5 -61t-39.5 -108h377q-5 64 -42 109.5t-95 60.5h1q-54 15 -108 -1zM269 692l76 -88q10 -13 3 -27t-23 -17t-34 9l-82 84q-21 24 1 44q21 19 45 7q8 -4 14 -12z" />
    <glyph glyph-name="eacute" unicode="&#xe9;" horiz-adv-x="619" 
d="M372 507h1q85 -23 134.5 -89.5t50.5 -161.5v1q2 -19 -9.5 -32.5t-39.5 -13.5h-395q10 -64 60 -107t123 -43q78 0 133 42q12 11 27.5 11t24.5 -8.5t9.5 -23t-13.5 -28.5q-66 -62 -178 -60q-60 0 -114.5 23t-88.5 66q-53 70 -57.5 159.5t44.5 164.5t138 100q71 21 150 0z
M244 441q-59 -15 -93.5 -61t-39.5 -108h377q-5 64 -42 109.5t-95 60.5h1q-54 15 -108 -1zM276 604l74 83q20 27 50 13q24 -11 18 -33q-2 -7 -9 -14l-82 -82q-16 -14 -32.5 -11t-21 16.5t2.5 27.5z" />
    <glyph glyph-name="ecircumflex" unicode="&#xea;" horiz-adv-x="619" 
d="M372 507h1q85 -23 134.5 -89.5t50.5 -161.5v1q2 -19 -9.5 -32.5t-39.5 -13.5h-395q10 -64 60 -107t123 -43q78 0 133 42q12 11 27.5 11t24.5 -8.5t9.5 -23t-13.5 -28.5q-66 -62 -178 -60q-60 0 -114.5 23t-88.5 66q-53 70 -57.5 159.5t44.5 164.5t138 100q71 21 150 0z
M244 441q-59 -15 -93.5 -61t-39.5 -108h377q-5 64 -42 109.5t-95 60.5h1q-54 15 -108 -1zM301 614l-65 -54q-23 -19 -42.5 -0.5t2.5 42.5l77 68q29 24 56 0l78 -68q15 -15 9.5 -30t-21 -18t-31.5 7z" />
    <glyph glyph-name="edieresis" unicode="&#xeb;" horiz-adv-x="619" 
d="M372 507h1q85 -23 134.5 -89.5t50.5 -161.5v1q2 -19 -9.5 -32.5t-39.5 -13.5h-395q10 -64 60 -107t123 -43q78 0 133 42q12 11 27.5 11t24.5 -8.5t9.5 -23t-13.5 -28.5q-66 -62 -178 -60q-60 0 -114.5 23t-88.5 66q-53 70 -57.5 159.5t44.5 164.5t138 100q71 21 150 0z
M244 441q-59 -15 -93.5 -61t-39.5 -108h377q-5 64 -42 109.5t-95 60.5h1q-54 15 -108 -1zM406 650q17 0 31 -12t14 -30q0 -22 -13.5 -33t-31.5 -11t-31.5 12.5t-13.5 31.5q0 18 13.5 30t31.5 12zM210 650q16 0 30 -12t14 -30q0 -21 -13.5 -32.5t-30.5 -11.5
q-18 0 -31.5 12.5t-13.5 31.5q0 18 13.5 30t31.5 12z" />
    <glyph glyph-name="igrave" unicode="&#xec;" horiz-adv-x="202" 
d="M59 26v450q0 20 18.5 29t36.5 0.5t18 -28.5v-451q0 -21 -18 -29t-36.5 0.5t-18.5 28.5zM55 691l75 -89q10 -14 3 -28t-22.5 -17t-33.5 10l-82 85q-21 24 1 44q21 19 45 7q8 -4 14 -12z" />
    <glyph glyph-name="iacute" unicode="&#xed;" horiz-adv-x="202" 
d="M59 476v-450q0 -20 18.5 -28.5t36.5 -0.5t18 29v451q0 20 -18 28.5t-36.5 -0.5t-18.5 -29zM66 606l76 81q21 26 51 13q24 -11 19 -32q-2 -7 -9 -14l-85 -79q-16 -14 -33 -11t-22 16t3 26z" />
    <glyph glyph-name="icircumflex" unicode="&#xee;" horiz-adv-x="202" 
d="M59 476v-450q0 -20 18.5 -28.5t36.5 -0.5t18 29v451q0 20 -18 28.5t-36.5 -0.5t-18.5 -29zM93 608l-65 -53q-24 -19 -43.5 -0.5t2.5 41.5l78 68q29 23 56 0l79 -68q15 -14 9.5 -29t-21 -18t-31.5 7z" />
    <glyph glyph-name="idieresis" unicode="&#xef;" horiz-adv-x="202" 
d="M59 476v-450q0 -20 18.5 -28.5t36.5 -0.5t18 29v451q0 20 -18 28.5t-36.5 -0.5t-18.5 -29zM185 653q17 0 31 -12t14 -30q0 -22 -13.5 -33t-31.5 -11t-31.5 12.5t-13.5 31.5q0 18 13.5 30t31.5 12zM7 653q16 0 30 -12t14 -30q0 -21 -13.5 -32.5t-30.5 -11.5
q-18 0 -31.5 12.5t-13.5 31.5q0 18 13.5 30t31.5 12z" />
    <glyph glyph-name="eth" unicode="&#xf0;" horiz-adv-x="580" 
d="M391 647l26 29q13 14 31 10.5t23.5 -18t-6.5 -30.5l-26 -27q74 -57 74 -141v-262q-1 -54 -27 -101t-75 -76h1q-52 -34 -126 -34q-83 0 -142 41l1 -1q-56 36 -88 97t-32 129q0 53 21 103q29 68 91 105t134 37q51 0 98.5 -21.5t71.5 -66.5v48q0 58 -50 93l-21 -23
q-13 -16 -30 -13t-22 18.5t7 32.5l18 19q-38 19 -78 19q-86 0 -142 -56q-25 -24 -46.5 -2.5t0.5 47.5q62 63 159 75q90 7 155 -31zM113 339q-13 -33 -13 -76q0 -31 6 -53q20 -76 78 -114q47 -32 102 -32q48 0 89 25q31 17 48 50t19 70v73q0 63 -57 110t-118 47
q-51 0 -92.5 -25t-61.5 -75z" />
    <glyph glyph-name="ntilde" unicode="&#xf1;" horiz-adv-x="645" 
d="M484 29v265q0 67 -46 111.5t-109 44.5q-75 0 -131.5 -54.5t-56.5 -134.5v-232q0 -35 -36 -35q-17 0 -27.5 9.5t-10.5 25.5v448q0 22 18 31t36 0t18 -32v-62q26 52 77.5 78t113.5 26q93 0 160 -60.5t67 -163.5v-265q0 -35 -36 -35q-17 0 -27 9.5t-10 25.5zM189 633
q27 43 80 43q20 0 43.5 -11t37 -20t30.5 -10.5t25 16.5q13 27 40 18q22 -8 21 -29q0 -7 -4 -14q-20 -41 -60 -48.5t-81 18.5q-62 40 -83 1q-10 -15 -27.5 -13.5t-24.5 15t3 34.5z" />
    <glyph glyph-name="ograve" unicode="&#xf2;" 
d="M297 -9q-125 0 -200 90q-66 77 -61 192q8 85 56 148.5t129 86.5q31 9 76 9q41 0 74 -9q81 -23 130 -86.5t56 -148.5q6 -113 -60 -192q-75 -90 -200 -90zM351 442q-28 7 -55 7t-53 -7q-62 -16 -97.5 -68.5t-35.5 -121.5q0 -76 44 -127q55 -66 143 -66q86 0 144 66
q44 53 44 125q0 70 -36 123t-98 69zM258 697l77 -84q10 -13 3 -27t-23 -16.5t-34 9.5l-83 81q-21 23 1 42q21 19 45 7q8 -4 14 -12z" />
    <glyph glyph-name="oacute" unicode="&#xf3;" 
d="M297 -9q-125 0 -200 90q-66 77 -61 192q8 85 56 148.5t129 86.5q31 9 76 9q41 0 74 -9q81 -23 130 -86.5t56 -148.5q6 -113 -60 -192q-75 -90 -200 -90zM351 442q-28 7 -55 7t-53 -7q-62 -16 -97.5 -68.5t-35.5 -121.5q0 -76 44 -127q55 -66 143 -66q86 0 144 66
q44 53 44 125q0 70 -36 123t-98 69zM269 607l75 81q20 26 49 13q24 -10 20 -31q-2 -8 -9 -15l-83 -79q-16 -14 -33 -11t-21.5 16t2.5 26z" />
    <glyph glyph-name="ocircumflex" unicode="&#xf4;" 
d="M297 -9q-125 0 -200 90q-66 77 -61 192q8 85 56 148.5t129 86.5q31 9 76 9q41 0 74 -9q81 -23 130 -86.5t56 -148.5q6 -113 -60 -192q-75 -90 -200 -90zM351 442q-28 7 -55 7t-53 -7q-62 -16 -97.5 -68.5t-35.5 -121.5q0 -76 44 -127q55 -66 143 -66q86 0 144 66
q44 53 44 125q0 70 -36 123t-98 69zM302 633l-66 -54q-23 -18 -43 0t3 41l78 68q28 23 57 0l79 -68q15 -14 9.5 -29t-21.5 -18t-32 7z" />
    <glyph glyph-name="otilde" unicode="&#xf5;" 
d="M297 -9q-125 0 -200 90q-66 77 -61 192q8 85 56 148.5t129 86.5q31 9 76 9q41 0 74 -9q81 -23 130 -86.5t56 -148.5q6 -113 -60 -192q-75 -90 -200 -90zM351 442q-28 7 -55 7t-53 -7q-62 -16 -97.5 -68.5t-35.5 -121.5q0 -76 44 -127q55 -66 143 -66q86 0 144 66
q44 53 44 125q0 70 -36 123t-98 69zM165 640q27 43 80 43q20 0 43.5 -11t37 -20t30.5 -10.5t25 16.5q13 27 40 18q22 -8 21 -29q0 -7 -4 -14q-20 -41 -60 -48.5t-81 18.5q-62 40 -83 1q-10 -15 -27.5 -13.5t-24.5 15t3 34.5z" />
    <glyph glyph-name="odieresis" unicode="&#xf6;" 
d="M297 -9q-125 0 -200 90q-66 77 -61 192q8 85 56 148.5t129 86.5q31 9 76 9q41 0 74 -9q81 -23 130 -86.5t56 -148.5q6 -113 -60 -192q-75 -90 -200 -90zM351 442q-28 7 -55 7t-53 -7q-62 -16 -97.5 -68.5t-35.5 -121.5q0 -76 44 -127q55 -66 143 -66q86 0 144 66
q44 53 44 125q0 70 -36 123t-98 69zM396 655q17 0 31 -12t14 -30q0 -22 -13.5 -33t-31.5 -11t-31.5 12.5t-13.5 31.5q0 18 13.5 30t31.5 12zM200 655q16 0 30 -12t14 -30q0 -21 -13.5 -32.5t-30.5 -11.5q-18 0 -31.5 12.5t-13.5 31.5q0 18 13.5 30t31.5 12z" />
    <glyph glyph-name="divide" unicode="&#xf7;" horiz-adv-x="489" 
d="M396 264h-340q-22 0 -31 15.5t0 31t31 15.5h340q22 0 32 -15.5t1 -31t-33 -15.5zM221 212q20 0 32.5 -12t12.5 -31t-12.5 -31t-32.5 -12q-19 0 -31 12t-12 31t12 31t31 12zM221 472q20 0 32.5 -12t12.5 -31t-12.5 -30.5t-32.5 -11.5q-19 0 -31 11.5t-12 30.5t12 31t31 12
z" />
    <glyph glyph-name="oslash" unicode="&#xf8;" horiz-adv-x="611" 
d="M101 -19l36 63q-18 13 -40 39q-66 77 -61 190q8 82 56.5 147t128.5 87q31 9 76 9q41 0 74 -9q21 -7 27 -7l31 54q10 20 30.5 20t32.5 -15.5t2 -33.5l-39 -60q44 -35 71 -85.5t31 -106.5q6 -111 -60 -190q-74 -89 -200 -89q-53 0 -101 17l-34 -59q-18 -28 -45.5 -15
t-15.5 44zM173 108l190 329q-51 20 -121 3h1q-61 -16 -97 -69.5t-36 -118.5q0 -74 44 -125q9 -12 19 -19zM441 127q43 50 43 122q0 40 -18 82t-46 71l-189 -330q32 -10 66 -10q90 0 144 65z" />
    <glyph glyph-name="ugrave" unicode="&#xf9;" horiz-adv-x="646" 
d="M138 479v-265q0 -67 46 -111.5t109 -44.5q75 0 131.5 54.5t56.5 134.5v232q0 35 36 35q17 0 27.5 -9.5t10.5 -25.5v-448q0 -22 -18 -31t-36 0t-18 32v63q-26 -52 -77.5 -78.5t-113.5 -26.5q-93 0 -160 60.5t-67 163.5v265q0 35 36 35q17 0 27 -9.5t10 -25.5zM279 695
l76 -86q10 -13 3 -27t-23 -16.5t-34 9.5l-81 82q-22 24 1 44q22 19 45 6q8 -4 13 -12z" />
    <glyph glyph-name="uacute" unicode="&#xfa;" horiz-adv-x="646" 
d="M138 479v-265q0 -67 46 -111.5t109 -44.5q75 0 131.5 54.5t56.5 134.5v232q0 35 36 35q17 0 27.5 -9.5t10.5 -25.5v-448q0 -22 -18 -31t-36 0t-18 32v63q-26 -52 -77.5 -78.5t-113.5 -26.5q-93 0 -160 60.5t-67 163.5v265q0 35 36 35q17 0 27 -9.5t10 -25.5zM271 605
l77 79q21 26 51 13q24 -11 19 -31q-2 -7 -9 -14l-85 -78q-16 -13 -33.5 -10t-22.5 15.5t3 25.5z" />
    <glyph glyph-name="ucircumflex" unicode="&#xfb;" horiz-adv-x="646" 
d="M138 479v-265q0 -67 46 -111.5t109 -44.5q75 0 131.5 54.5t56.5 134.5v232q0 35 36 35q17 0 27.5 -9.5t10.5 -25.5v-448q0 -22 -18 -31t-36 0t-18 32v63q-26 -52 -77.5 -78.5t-113.5 -26.5q-93 0 -160 60.5t-67 163.5v265q0 35 36 35q17 0 27 -9.5t10 -25.5zM312 614
l-65 -52q-15 -11 -31 -6.5t-19.5 17.5t9.5 29l78 66q29 23 56 0l79 -66q15 -14 9.5 -28.5t-21 -17.5t-31.5 7z" />
    <glyph glyph-name="udieresis" unicode="&#xfc;" horiz-adv-x="646" 
d="M138 479v-265q0 -67 46 -111.5t109 -44.5q75 0 131.5 54.5t56.5 134.5v232q0 35 36 35q17 0 27.5 -9.5t10.5 -25.5v-448q0 -22 -18 -31t-36 0t-18 32v63q-26 -52 -77.5 -78.5t-113.5 -26.5q-93 0 -160 60.5t-67 163.5v265q0 35 36 35q17 0 27 -9.5t10 -25.5zM409 652
q17 0 31 -12t14 -30q0 -22 -13.5 -33t-31.5 -11t-31.5 12.5t-13.5 31.5q0 18 13.5 30t31.5 12zM213 652q16 0 30 -12t14 -30q0 -21 -13.5 -32.5t-30.5 -11.5q-18 0 -31.5 12.5t-13.5 31.5q0 18 13.5 30t31.5 12z" />
    <glyph glyph-name="yacute" unicode="&#xfd;" horiz-adv-x="559" 
d="M9 466l219 -431l-88 -179q-9 -22 3.5 -37.5t33 -12.5t31.5 25l321 638q8 20 -5.5 34t-33.5 13t-29 -20l-191 -387l-193 386q-9 21 -29.5 21.5t-34 -15.5t-4.5 -35zM244 593l73 89q19 28 47 15q24 -12 20 -34q-2 -9 -9 -17l-81 -88q-24 -23 -44.5 -5.5t-5.5 40.5z" />
    <glyph glyph-name="thorn" unicode="&#xfe;" horiz-adv-x="609" 
d="M405 496l-1 1q70 -27 111 -90.5t43 -140.5q2 -89 -39.5 -158t-121.5 -102l1 1q-45 -19 -96 -19q-49 0 -93.5 22t-68.5 66v-224q0 -34 -37 -34q-16 0 -26 9t-10 25v818q0 16 10 25.5t27 9.5q36 0 36 -35v-240q25 40 67.5 62t89.5 23q63 2 108 -19zM308 57q61 5 103 38h-1
q77 63 75 170q-1 39 -15 74q-21 50 -68.5 78.5t-102.5 28.5q-67 -3 -110 -46.5t-49 -107.5v-79q4 -70 51.5 -113t116.5 -43z" />
    <glyph glyph-name="ydieresis" unicode="&#xff;" horiz-adv-x="559" 
d="M9 466l219 -431l-88 -179q-9 -22 3.5 -37.5t33 -12.5t31.5 25l321 638q8 20 -5.5 34t-33.5 13t-29 -20l-191 -387l-193 386q-9 21 -29.5 21.5t-34 -15.5t-4.5 -35zM367 640q17 0 31 -12t14 -30q0 -22 -13.5 -33t-31.5 -11t-31.5 12.5t-13.5 31.5q0 18 13.5 30t31.5 12z
M171 640q16 0 30 -12t14 -30q0 -21 -13.5 -32.5t-30.5 -11.5q-18 0 -31.5 12.5t-13.5 31.5q0 18 13.5 30t31.5 12z" />
    <glyph glyph-name="OE" unicode="&#x152;" horiz-adv-x="1063" 
d="M608 282v-214h358q19 0 27.5 -17t0.5 -34t-28 -17h-380q-48 0 -48 57q-51 -68 -172 -68q-136 0 -230 93.5t-90 246.5q3 120 73.5 209t186.5 107q32 4 54 4q120 0 178 -67q0 54 46 54h383q19 0 28 -16.5t1 -33t-30 -16.5h-358v-222h339q18 0 26 -16.5t0.5 -33t-26.5 -16.5
h-339zM318 578h-1q-89 -14 -142 -85t-56 -167q-3 -118 70 -194t177 -76q106 0 172 67v391q-76 67 -177 67q-21 0 -43 -3z" />
    <glyph glyph-name="oe" unicode="&#x153;" horiz-adv-x="1057" 
d="M477 250q0 80 -53.5 138.5t-135.5 58.5q-26 0 -54 -7h1q-62 -16 -97.5 -69t-35.5 -119q0 -74 44 -125q54 -65 143 -65q87 0 144 65q44 53 44 123zM683 441q-58 -15 -93 -62.5t-39 -109.5h374q-6 65 -41.5 111.5t-92.5 61.5h1q-24 6 -53 6q-32 0 -56 -7zM737 516
q111 0 183 -71.5t78 -188.5v1q2 -20 -9 -35t-40 -15h-395q10 -46 41 -80q53 -63 141 -65q73 -2 134 44h-1q16 15 35 10t23.5 -22.5t-10.5 -39.5q-65 -62 -178 -60q-158 0 -227 127q-26 -57 -88.5 -92t-134.5 -35q-127 0 -201 89q-66 79 -60 190q7 82 56 146.5t129 87.5
q31 9 76 9q41 0 74 -9q93 -25 149 -123q49 96 149 123q31 9 76 9z" />
    <glyph glyph-name="Scaron" unicode="&#x160;" horiz-adv-x="646" 
d="M22 140q-6 21 11 33.5t38 8t25 -23.5q18 -56 80 -78.5t137 -22.5q36 0 70.5 6t69 19.5t56 39.5t21.5 62q0 16 -4 29t-14.5 22.5t-19.5 16.5t-29 12.5t-31 8.5t-37.5 6t-38 4.5t-41.5 3.5q-45 4 -70 6.5t-64.5 9.5t-61.5 18.5t-45.5 29.5t-34 45.5t-10.5 63.5q0 91 85 141
t189 50q227 0 278 -139q7 -19 -7 -31.5t-34 -10.5t-27 18q-35 89 -209 89q-28 0 -59.5 -6t-63.5 -18.5t-53 -37t-21 -56.5q0 -21 7 -37t24 -27t33 -18t45.5 -11.5t49.5 -6.5t57 -5q132 -12 179 -28q105 -35 105 -141q0 -54 -28 -95t-73.5 -63t-94 -32t-98.5 -10
q-58 0 -114 12.5t-109 49.5t-68 93zM316 756l68 53q24 19 44 0.5t-3 -41.5l-80 -67q-30 -23 -58 0l-81 67q-22 20 -5 38t40 7q5 -2 9 -5z" />
    <glyph glyph-name="scaron" unicode="&#x161;" horiz-adv-x="535" 
d="M28 113q-6 20 10 33t36 8t24 -28q7 -32 54.5 -50t106.5 -18q29 0 62 7.5t62.5 29.5t29.5 54q0 22 -9.5 36t-38 21.5t-42 9.5t-58.5 5q-2 0 -3 0.5t-3 0.5h-3q-38 4 -55 6t-50 8t-49 15t-35 23.5t-27 37t-8 52.5q0 50 35.5 86.5t83 51.5t99.5 15q179 0 219 -103
q7 -21 -7.5 -35t-34.5 -11.5t-26 20.5q-24 62 -151 62q-52 0 -98.5 -22.5t-46.5 -64.5q0 -21 10.5 -34.5t29.5 -19.5t42 -9t52 -5q13 0 20 -1q37 -3 56 -5.5t51 -8.5t49 -15.5t36 -24.5t27 -38t8 -53q0 -45 -23 -77.5t-60 -48.5t-73 -23.5t-71 -7.5t-69 5t-69.5 17.5
t-60.5 38t-32 60.5zM264 621l67 53q23 18 43 0t-2 -41l-79 -66q-30 -23 -57 0l-80 66q-15 14 -10 29t21.5 18t32.5 -7z" />
    <glyph glyph-name="Ydieresis" unicode="&#x178;" horiz-adv-x="617" 
d="M396 771q17 0 31 -12t14 -30q0 -22 -13.5 -33t-31.5 -11t-31.5 12.5t-13.5 31.5q0 18 13.5 30t31.5 12zM210 771q16 0 30 -12t14 -30q0 -21 -13.5 -32.5t-30.5 -11.5q-18 0 -31.5 12.5t-13.5 31.5q0 18 13.5 30t31.5 12zM262 257v-224q0 -18 10.5 -27.5t26.5 -9.5
q14 0 25.5 10t11.5 27v224l251 337q13 20 2 36.5t-29.5 16.5t-32.5 -17l-229 -310l-226 309q-13 19 -35 17t-31 -18t3 -36z" />
    <glyph glyph-name="Zcaron" unicode="&#x17d;" horiz-adv-x="614" 
d="M576 577l-452 -508h427q22 0 31.5 -16.5t0.5 -34t-32 -18.5h-494q-29 0 -37.5 19t8.5 39l448 513h-405q-21 0 -29.5 16t0 32.5t29.5 17.5h476q30 0 38.5 -19t-9.5 -41zM322 749l67 52q15 11 31.5 6.5t19.5 -17.5t-10 -29l-79 -66q-30 -21 -58 0l-81 66q-22 20 -3.5 37.5
t42.5 5.5l6 -4z" />
    <glyph glyph-name="zcaron" unicode="&#x17e;" horiz-adv-x="529" 
d="M128 67l343 379v-1q18 19 8 41.5t-37 22.5h-371q-21 0 -30.5 -17.5t-0.5 -35t31 -17.5q53 0 150 0.5t150 0.5l-338 -378q-20 -17 -12 -39.5t38 -22.5h391q24 0 33 17t-1 34t-33 17zM272 611l67 52q15 11 31.5 6.5t19.5 -17.5t-10 -29l-79 -66q-30 -21 -58 0l-81 66
q-22 20 -3.5 37.5t42.5 5.5l6 -4z" />
    <glyph glyph-name="florin" unicode="&#x192;" horiz-adv-x="461" 
d="M372 438h-98q-9 -70 -28.5 -208t-28.5 -204q0 -1 -1 -4v-2q-10 -74 -52.5 -124.5t-119.5 -50.5q-54 -1 -78 28q-23 26 0.5 49.5t50.5 -0.5h-1q14 -12 32 -12q77 0 95 116q9 68 28.5 204.5t28.5 207.5h-83q-22 0 -30 15t2.5 30.5t32.5 15.5h86q13 70 54.5 115.5
t115.5 46.5q62 2 96 -30q19 -19 -3.5 -44.5t-44.5 -5.5q-15 12 -52 12q-71 0 -91 -94h92q24 0 32.5 -15.5t-2.5 -30.5t-33 -15z" />
    <glyph glyph-name="circumflex" unicode="&#x2c6;" horiz-adv-x="323" 
d="M147 612l-65 -57q-23 -20 -42.5 0t2.5 44l77 72q29 24 56 0l78 -72q9 -9 10.5 -19t-3.5 -17.5t-13 -12t-18 -3t-19 8.5z" />
    <glyph glyph-name="caron" unicode="&#x2c7;" horiz-adv-x="326" 
d="M149 604l65 57q23 20 42.5 0t-2.5 -44l-77 -72q-29 -24 -56 0l-78 72q-23 23 -1.5 43t44.5 0z" />
    <glyph glyph-name="ring" unicode="&#x2da;" horiz-adv-x="209" 
d="M87 660q36 0 61.5 -24.5t25.5 -59.5q0 -36 -25.5 -61t-61.5 -25q-37 0 -62.5 24.5t-25.5 61.5q0 35 25.5 59.5t62.5 24.5zM87 606q-12 0 -21.5 -9t-9.5 -21q0 -13 9.5 -23t21.5 -10q11 0 20 10t9 23q0 12 -9 21t-20 9z" />
    <glyph glyph-name="tilde" unicode="&#x2dc;" horiz-adv-x="353" 
d="M38 641q27 43 80 43q20 0 43.5 -11t37 -20t30.5 -10.5t25 16.5q13 27 40 18q22 -8 21 -29q0 -7 -4 -14q-20 -41 -60 -48.5t-81 18.5q-62 40 -83 1q-10 -15 -27.5 -13.5t-24.5 15t3 34.5z" />
    <glyph glyph-name="endash" unicode="&#x2013;" horiz-adv-x="406" 
d="M323 265h-256q-23 0 -32.5 17t0 34t31.5 17h257q19 0 28 -17t1 -34t-29 -17z" />
    <glyph glyph-name="emdash" unicode="&#x2014;" horiz-adv-x="536" 
d="M454 265h-385q-21 0 -28.5 17t1 34t27.5 17h385q20 0 28.5 -17t0.5 -34t-29 -17z" />
    <glyph glyph-name="quoteleft" unicode="&#x2018;" horiz-adv-x="145" 
d="M16 532l45 94q10 21 28.5 22t29 -14t1.5 -35l-41 -96q-9 -21 -29.5 -21.5t-32 15.5t-1.5 35z" />
    <glyph glyph-name="quoteright" unicode="&#x2019;" horiz-adv-x="134" 
d="M116 598l-45 -94q-10 -21 -28.5 -22t-29 14t-1.5 35l41 96q9 21 29.5 21.5t32 -15.5t1.5 -35z" />
    <glyph glyph-name="quotesinglbase" unicode="&#x201a;" horiz-adv-x="147" 
d="M106 16l-45 -94q-10 -21 -28.5 -22t-29 14t-1.5 35l41 96q9 21 29.5 21.5t32 -15.5t1.5 -35z" />
    <glyph glyph-name="quotedblleft" unicode="&#x201c;" horiz-adv-x="249" 
d="M16 532l45 94q17 33 45.5 20t13.5 -47l-41 -96q-9 -21 -29.5 -21.5t-32 15.5t-1.5 35zM133 532l47 91q9 20 27 22t28.5 -12.5t1.5 -33.5l-41 -96q-9 -21 -29.5 -21.5t-32 15.5t-1.5 35z" />
    <glyph glyph-name="quotedblright" unicode="&#x201d;" horiz-adv-x="254" 
d="M232 594l-45 -94q-17 -33 -45.5 -20t-13.5 47l41 96q9 21 29.5 21.5t32 -15.5t1.5 -35zM115 594l-47 -91q-9 -20 -27 -22t-28.5 12.5t-1.5 33.5l41 96q9 21 29.5 21.5t32 -15.5t1.5 -35z" />
    <glyph glyph-name="quotedblbase" unicode="&#x201e;" horiz-adv-x="249" 
d="M106 16l-45 -94q-10 -21 -28.5 -22t-29 14t-1.5 35l41 96q9 21 29.5 21.5t32 -15.5t1.5 -35zM232 16l-45 -94q-10 -21 -28.5 -22t-29 14t-1.5 35l41 96q9 21 29.5 21.5t32 -15.5t1.5 -35z" />
    <glyph glyph-name="bullet" unicode="&#x2022;" horiz-adv-x="234" 
d="M105 380q37 0 61 -24t24 -59q0 -34 -24.5 -58t-60.5 -24q-34 0 -58.5 24t-24.5 58q0 35 24.5 59t58.5 24z" />
    <glyph glyph-name="ellipsis" unicode="&#x2026;" horiz-adv-x="367" 
d="M49 84q20 0 31.5 -11t11.5 -30t-12 -31t-31 -12q-20 0 -32.5 12t-12.5 31t12.5 30t32.5 11zM289 84q20 0 32.5 -11t12.5 -30t-12.5 -31t-32.5 -12q-19 0 -31 12t-12 31t11.5 30t31.5 11zM169 84q20 0 32 -11t12 -30t-12.5 -31t-31.5 -12t-31.5 12t-12.5 31t12 30t32 11z
" />
    <glyph glyph-name="perthousand" unicode="&#x2030;" horiz-adv-x="917" 
d="M533 615l-433 -615q-15 -18 -34.5 -14.5t-25.5 20t5 33.5l436 611q10 16 27.5 14t25.5 -16t-1 -33zM146 650q56 0 95 -40.5t39 -100.5q0 -56 -37.5 -100t-96.5 -44q-57 0 -95.5 40.5t-38.5 103.5q0 56 37.5 98.5t96.5 42.5zM217 510q-1 31 -20.5 55t-50.5 24
q-30 0 -51 -23.5t-21 -56.5q0 -32 20 -57.5t52 -25.5q31 0 50 23t21 61zM429 275q56 0 95 -40.5t39 -100.5q0 -56 -37.5 -100t-96.5 -44q-57 0 -95.5 40.5t-38.5 103.5q0 56 37.5 98.5t96.5 42.5zM500 135q-1 31 -20.5 55t-50.5 24q-30 0 -51 -24t-21 -56t20 -57.5t52 -25.5
q31 0 50 23t21 61zM735 275q56 0 95 -40.5t39 -100.5q0 -56 -37.5 -100t-96.5 -44q-57 0 -95.5 40.5t-38.5 103.5q0 56 37.5 98.5t96.5 42.5zM806 135q-1 31 -20.5 55t-50.5 24q-30 0 -51 -24t-21 -56t20 -57.5t52 -25.5q31 0 50 23t21 61z" />
    <glyph glyph-name="guilsinglleft" unicode="&#x2039;" horiz-adv-x="316" 
d="M265 408l-160 -149l157 -147q13 -12 13 -26t-10 -24t-27 -10q-15 0 -26 11l-172 166q-32 29 1 61l172 166q10 10 25 10q17 0 27 -9.5t10 -25.5q0 -12 -10 -23z" />
    <glyph glyph-name="guilsinglright" unicode="&#x203a;" horiz-adv-x="302" 
d="M190 251l-154 149q-10 14 -10 24q0 16 10 25.5t27 9.5q15 0 25 -10h-1l173 -166q32 -34 2 -61l-173 -166h1q-10 -12 -27 -12q-16 0 -26.5 10t-10.5 25q0 13 12 26z" />
    <glyph glyph-name="Euro" unicode="&#x20ac;" horiz-adv-x="667" 
d="M21 290h32q-1 9 -1 26q0 22 1 32h-32q-17 0 -23 16t1 31.5t22 15.5h41q25 86 90 146.5t156 75.5q20 4 51 4q143 0 230 -94q12 -14 3.5 -31t-24.5 -21.5t-31 8.5q-40 44 -99 59.5t-120 6.5q-64 -10 -112.5 -52t-70.5 -102h135q19 0 28 -15.5t1 -31.5t-29 -16h-153
q-1 -11 -1 -34q0 -15 1 -24h153q13 0 21 -10t8.5 -21.5t-7 -21.5t-22.5 -10h-137q28 -75 94 -121.5t144 -46.5q57 0 109 25.5t86 68.5q12 14 29 12t28 -18.5t0 -33.5q-38 -58 -110 -90t-145 -32q-108 0 -194 65t-114 171h-39q-17 0 -24 15.5t0.5 31.5t23.5 16z" />
    <glyph glyph-name="trademark" unicode="&#x2122;" horiz-adv-x="594" 
d="M-3 637h202q21 0 30.5 -16.5t0.5 -33t-31 -16.5h-66v-190q0 -20 -17 -29t-34.5 -0.5t-19.5 29.5v190h-65q-17 0 -24.5 16.5t-0.5 33t25 16.5zM442 422q-11 -21 -29.5 -20.5t-29.5 20.5l-53 82v-122q0 -17 -18 -26t-35.5 -2t-17.5 28v222q0 28 25 35t41 -18l87 -124
l88 124q16 25 41 18t25 -35v-222q0 -21 -18 -28t-35.5 2t-17.5 26v122z" />
    </font>
</defs>
</svg>
